{
    "asset" : {
        "generator" : "Khronos glTF Blender I/O v1.7.33",
        "version" : "2.0"
    },
    "scene" : 0,
    "scenes" : [
        {
            "name" : "Scene",
            "nodes" : [
                0,
                1,
                2,
                3,
                4,
                5
            ]
        }
    ],
    "nodes" : [
        {
            "mesh" : 0,
            "name" : "Plane",
            "rotation" : [
                0.7071068286895752,
                0,
                0,
                0.7071067094802856
            ],
            "scale" : [
                0.6189962029457092,
                0.6189962029457092,
                0.6189962029457092
            ],
            "translation" : [
                -3.338709831237793,
                -0.4522891640663147,
                -4.010297775268555
            ]
        },
        {
            "mesh" : 1,
            "name" : "Plane.002",
            "rotation" : [
                0.7071068286895752,
                0,
                0,
                0.7071067094802856
            ],
            "scale" : [
                0.6189962029457092,
                0.6189962029457092,
                0.6189962029457092
            ],
            "translation" : [
                -3.338709831237793,
                -0.4522891640663147,
                -4.010297775268555
            ]
        },
        {
            "mesh" : 2,
            "name" : "Plane.001_Plane.003",
            "rotation" : [
                0.7071068286895752,
                0,
                0,
                0.7071067094802856
            ],
            "scale" : [
                0.6189962029457092,
                0.6189962029457092,
                0.6189962029457092
            ],
            "translation" : [
                -3.338709831237793,
                -0.4522891640663147,
                -4.010297775268555
            ]
        },
        {
            "mesh" : 3,
            "name" : "Plane.003_Plane.010",
            "rotation" : [
                0.7071068286895752,
                0,
                0,
                0.7071067094802856
            ],
            "scale" : [
                0.6189962029457092,
                0.6189962029457092,
                0.6189962029457092
            ],
            "translation" : [
                -3.338709831237793,
                -0.4522891640663147,
                -4.010297775268555
            ]
        },
        {
            "mesh" : 4,
            "name" : "Plane.004_Plane.011",
            "rotation" : [
                0.7071068286895752,
                0,
                0,
                0.7071067094802856
            ],
            "scale" : [
                0.6189962029457092,
                0.6189962029457092,
                0.6189962029457092
            ],
            "translation" : [
                -3.338709831237793,
                -0.4522891640663147,
                -4.010297775268555
            ]
        },
        {
            "mesh" : 5,
            "name" : "Circle",
            "rotation" : [
                0.7071068286895752,
                0,
                0,
                0.7071067094802856
            ],
            "scale" : [
                0.6189962029457092,
                0.6189962029457092,
                0.6189962029457092
            ],
            "translation" : [
                -3.338709831237793,
                -0.4522891640663147,
                -4.003686904907227
            ]
        }
    ],
    "materials" : [
        {
            "doubleSided" : true,
            "name" : "Couch",
            "pbrMetallicRoughness" : {
                "baseColorFactor" : [
                    1,
                    0.8454629182815552,
                    0.7932264804840088,
                    1
                ],
                "metallicFactor" : 0,
                "roughnessFactor" : 0.14603173732757568
            }
        }
    ],
    "meshes" : [
        {
            "name" : "Plane",
            "primitives" : [
                {
                    "attributes" : {
                        "POSITION" : 0,
                        "NORMAL" : 1,
                        "TEXCOORD_0" : 2
                    },
                    "indices" : 3,
                    "material" : 0
                }
            ]
        },
        {
            "name" : "Plane.002",
            "primitives" : [
                {
                    "attributes" : {
                        "POSITION" : 4,
                        "NORMAL" : 5,
                        "TEXCOORD_0" : 6
                    },
                    "indices" : 7,
                    "material" : 0
                }
            ]
        },
        {
            "name" : "Plane.001_Plane.003",
            "primitives" : [
                {
                    "attributes" : {
                        "POSITION" : 8,
                        "NORMAL" : 9,
                        "TEXCOORD_0" : 10
                    },
                    "indices" : 11,
                    "material" : 0
                }
            ]
        },
        {
            "name" : "Plane.003_Plane.010",
            "primitives" : [
                {
                    "attributes" : {
                        "POSITION" : 12,
                        "NORMAL" : 13,
                        "TEXCOORD_0" : 14
                    },
                    "indices" : 15,
                    "material" : 0
                }
            ]
        },
        {
            "name" : "Plane.004_Plane.011",
            "primitives" : [
                {
                    "attributes" : {
                        "POSITION" : 16,
                        "NORMAL" : 17,
                        "TEXCOORD_0" : 18
                    },
                    "indices" : 19,
                    "material" : 0
                }
            ]
        },
        {
            "name" : "Circle",
            "primitives" : [
                {
                    "attributes" : {
                        "POSITION" : 20,
                        "NORMAL" : 21,
                        "TEXCOORD_0" : 22
                    },
                    "indices" : 23,
                    "material" : 0
                }
            ]
        }
    ],
    "accessors" : [
        {
            "bufferView" : 0,
            "componentType" : 5126,
            "count" : 310,
            "max" : [
                1.500535011291504,
                -0.49972400069236755,
                -0.09785100072622299
            ],
            "min" : [
                -1.4996650218963623,
                -1.6022870540618896,
                -0.30194300413131714
            ],
            "type" : "VEC3"
        },
        {
            "bufferView" : 1,
            "componentType" : 5126,
            "count" : 310,
            "type" : "VEC3"
        },
        {
            "bufferView" : 2,
            "componentType" : 5126,
            "count" : 310,
            "type" : "VEC2"
        },
        {
            "bufferView" : 3,
            "componentType" : 5123,
            "count" : 1428,
            "type" : "SCALAR"
        },
        {
            "bufferView" : 4,
            "componentType" : 5126,
            "count" : 658,
            "max" : [
                1.7001500129699707,
                -1.5949469804763794,
                -0.09794499725103378
            ],
            "min" : [
                -1.7027009725570679,
                -1.804468035697937,
                -0.9180949926376343
            ],
            "type" : "VEC3"
        },
        {
            "bufferView" : 5,
            "componentType" : 5126,
            "count" : 658,
            "type" : "VEC3"
        },
        {
            "bufferView" : 6,
            "componentType" : 5126,
            "count" : 658,
            "type" : "VEC2"
        },
        {
            "bufferView" : 7,
            "componentType" : 5123,
            "count" : 3084,
            "type" : "SCALAR"
        },
        {
            "bufferView" : 8,
            "componentType" : 5126,
            "count" : 1254,
            "max" : [
                1.7041690349578857,
                -0.4954110085964203,
                -0.08951199799776077
            ],
            "min" : [
                -1.7045999765396118,
                -1.6025320291519165,
                -0.9336940050125122
            ],
            "type" : "VEC3"
        },
        {
            "bufferView" : 9,
            "componentType" : 5126,
            "count" : 1254,
            "type" : "VEC3"
        },
        {
            "bufferView" : 10,
            "componentType" : 5126,
            "count" : 1254,
            "type" : "VEC2"
        },
        {
            "bufferView" : 11,
            "componentType" : 5123,
            "count" : 6000,
            "type" : "SCALAR"
        },
        {
            "bufferView" : 12,
            "componentType" : 5126,
            "count" : 8655,
            "max" : [
                1.520827054977417,
                -0.48126599192619324,
                -0.2526800036430359
            ],
            "min" : [
                -1.5665889978408813,
                -1.623263955116272,
                -0.5740259885787964
            ],
            "type" : "VEC3"
        },
        {
            "bufferView" : 13,
            "componentType" : 5126,
            "count" : 8655,
            "type" : "VEC3"
        },
        {
            "bufferView" : 14,
            "componentType" : 5126,
            "count" : 8655,
            "type" : "VEC2"
        },
        {
            "bufferView" : 15,
            "componentType" : 5123,
            "count" : 50400,
            "type" : "SCALAR"
        },
        {
            "bufferView" : 16,
            "componentType" : 5126,
            "count" : 11430,
            "max" : [
                1.5096780061721802,
                -1.3061120510101318,
                -0.4564659893512726
            ],
            "min" : [
                -1.5490820407867432,
                -1.6594040393829346,
                -1.226830005645752
            ],
            "type" : "VEC3"
        },
        {
            "bufferView" : 17,
            "componentType" : 5126,
            "count" : 11430,
            "type" : "VEC3"
        },
        {
            "bufferView" : 18,
            "componentType" : 5126,
            "count" : 11430,
            "type" : "VEC2"
        },
        {
            "bufferView" : 19,
            "componentType" : 5123,
            "count" : 66816,
            "type" : "SCALAR"
        },
        {
            "bufferView" : 20,
            "componentType" : 5126,
            "count" : 576,
            "max" : [
                1.634592056274414,
                -0.5477010011672974,
                0
            ],
            "min" : [
                -1.634592056274414,
                -1.7522989511489868,
                -0.11162099987268448
            ],
            "type" : "VEC3"
        },
        {
            "bufferView" : 21,
            "componentType" : 5126,
            "count" : 576,
            "type" : "VEC3"
        },
        {
            "bufferView" : 22,
            "componentType" : 5126,
            "count" : 576,
            "type" : "VEC2"
        },
        {
            "bufferView" : 23,
            "componentType" : 5123,
            "count" : 2304,
            "type" : "SCALAR"
        }
    ],
    "bufferViews" : [
        {
            "buffer" : 0,
            "byteLength" : 3720,
            "byteOffset" : 0
        },
        {
            "buffer" : 0,
            "byteLength" : 3720,
            "byteOffset" : 3720
        },
        {
            "buffer" : 0,
            "byteLength" : 2480,
            "byteOffset" : 7440
        },
        {
            "buffer" : 0,
            "byteLength" : 2856,
            "byteOffset" : 9920
        },
        {
            "buffer" : 0,
            "byteLength" : 7896,
            "byteOffset" : 12776
        },
        {
            "buffer" : 0,
            "byteLength" : 7896,
            "byteOffset" : 20672
        },
        {
            "buffer" : 0,
            "byteLength" : 5264,
            "byteOffset" : 28568
        },
        {
            "buffer" : 0,
            "byteLength" : 6168,
            "byteOffset" : 33832
        },
        {
            "buffer" : 0,
            "byteLength" : 15048,
            "byteOffset" : 40000
        },
        {
            "buffer" : 0,
            "byteLength" : 15048,
            "byteOffset" : 55048
        },
        {
            "buffer" : 0,
            "byteLength" : 10032,
            "byteOffset" : 70096
        },
        {
            "buffer" : 0,
            "byteLength" : 12000,
            "byteOffset" : 80128
        },
        {
            "buffer" : 0,
            "byteLength" : 103860,
            "byteOffset" : 92128
        },
        {
            "buffer" : 0,
            "byteLength" : 103860,
            "byteOffset" : 195988
        },
        {
            "buffer" : 0,
            "byteLength" : 69240,
            "byteOffset" : 299848
        },
        {
            "buffer" : 0,
            "byteLength" : 100800,
            "byteOffset" : 369088
        },
        {
            "buffer" : 0,
            "byteLength" : 137160,
            "byteOffset" : 469888
        },
        {
            "buffer" : 0,
            "byteLength" : 137160,
            "byteOffset" : 607048
        },
        {
            "buffer" : 0,
            "byteLength" : 91440,
            "byteOffset" : 744208
        },
        {
            "buffer" : 0,
            "byteLength" : 133632,
            "byteOffset" : 835648
        },
        {
            "buffer" : 0,
            "byteLength" : 6912,
            "byteOffset" : 969280
        },
        {
            "buffer" : 0,
            "byteLength" : 6912,
            "byteOffset" : 976192
        },
        {
            "buffer" : 0,
            "byteLength" : 4608,
            "byteOffset" : 983104
        },
        {
            "buffer" : 0,
            "byteLength" : 4608,
            "byteOffset" : 987712
        }
    ],
    "buffers" : [
        {
            "byteLength" : 992320,
            "uri" : "data:application/octet-stream;base64,"
        }
    ]
}
