{
    "asset" : {
        "generator" : "Khronos glTF Blender I/O v1.7.33",
        "version" : "2.0"
    },
    "scene" : 0,
    "scenes" : [
        {
            "name" : "Scene",
            "nodes" : [
                0,
                1,
                2,
                3,
                4
            ]
        }
    ],
    "nodes" : [
        {
            "mesh" : 0,
            "name" : "Cylinder",
            "rotation" : [
                -0.02788822166621685,
                -0.5265647172927856,
                0.849672257900238,
                -0.0029927652794867754
            ],
            "scale" : [
                0.09248418360948563,
                0.09248418360948563,
                0.09248418360948563
            ],
            "translation" : [
                -2.6360788345336914,
                3.5607945919036865,
                -4.088291645050049
            ]
        },
        {
            "mesh" : 1,
            "name" : "Cylinder.001",
            "rotation" : [
                -0.02788822166621685,
                -0.5265647172927856,
                0.849672257900238,
                -0.0029927652794867754
            ],
            "scale" : [
                0.09248418360948563,
                0.09248418360948563,
                0.09248418360948563
            ],
            "translation" : [
                -1.0488675832748413,
                3.5607945919036865,
                -4.088291645050049
            ]
        },
        {
            "mesh" : 2,
            "name" : "Cylinder.002",
            "rotation" : [
                -0.02788822166621685,
                -0.5265647172927856,
                0.849672257900238,
                -0.0029927652794867754
            ],
            "scale" : [
                0.09248418360948563,
                0.09248418360948563,
                0.09248418360948563
            ],
            "translation" : [
                0.9126861095428467,
                3.5607945919036865,
                -4.088291645050049
            ]
        },
        {
            "mesh" : 3,
            "name" : "Cylinder.003",
            "rotation" : [
                -0.02788822166621685,
                -0.5265647172927856,
                0.849672257900238,
                -0.0029927652794867754
            ],
            "scale" : [
                0.09248418360948563,
                0.09248418360948563,
                0.09248418360948563
            ],
            "translation" : [
                2.4998974800109863,
                3.5607945919036865,
                -4.088291645050049
            ]
        },
        {
            "mesh" : 4,
            "name" : "Cube.001",
            "scale" : [
                2.990750789642334,
                0.039446234703063965,
                -0.044661760330200195
            ],
            "translation" : [
                0,
                3.916722536087036,
                -4.045140266418457
            ]
        }
    ],
    "materials" : [
        {
            "doubleSided" : true,
            "name" : "Material.008",
            "pbrMetallicRoughness" : {
                "baseColorFactor" : [
                    0,
                    0,
                    0,
                    1
                ],
                "metallicFactor" : 0,
                "roughnessFactor" : 0.5
            }
        },
        {
            "doubleSided" : true,
            "name" : "Material.009",
            "pbrMetallicRoughness" : {
                "baseColorFactor" : [
                    0.800000011920929,
                    0.800000011920929,
                    0.800000011920929,
                    1
                ],
                "metallicFactor" : 0,
                "roughnessFactor" : 0.5
            }
        },
        {
            "doubleSided" : true,
            "name" : "Material.010",
            "pbrMetallicRoughness" : {
                "baseColorFactor" : [
                    0,
                    0,
                    0,
                    1
                ],
                "metallicFactor" : 0.3174603283405304,
                "roughnessFactor" : 0.317460298538208
            }
        }
    ],
    "meshes" : [
        {
            "name" : "Cylinder.001",
            "primitives" : [
                {
                    "attributes" : {
                        "POSITION" : 0,
                        "NORMAL" : 1,
                        "TEXCOORD_0" : 2
                    },
                    "indices" : 3,
                    "material" : 0
                },
                {
                    "attributes" : {
                        "POSITION" : 4,
                        "NORMAL" : 5,
                        "TEXCOORD_0" : 6
                    },
                    "indices" : 7,
                    "material" : 1
                }
            ]
        },
        {
            "name" : "Cylinder.002",
            "primitives" : [
                {
                    "attributes" : {
                        "POSITION" : 8,
                        "NORMAL" : 9,
                        "TEXCOORD_0" : 10
                    },
                    "indices" : 3,
                    "material" : 0
                },
                {
                    "attributes" : {
                        "POSITION" : 11,
                        "NORMAL" : 12,
                        "TEXCOORD_0" : 13
                    },
                    "indices" : 7,
                    "material" : 1
                }
            ]
        },
        {
            "name" : "Cylinder.003",
            "primitives" : [
                {
                    "attributes" : {
                        "POSITION" : 14,
                        "NORMAL" : 15,
                        "TEXCOORD_0" : 16
                    },
                    "indices" : 3,
                    "material" : 0
                },
                {
                    "attributes" : {
                        "POSITION" : 17,
                        "NORMAL" : 18,
                        "TEXCOORD_0" : 19
                    },
                    "indices" : 7,
                    "material" : 1
                }
            ]
        },
        {
            "name" : "Cylinder.004",
            "primitives" : [
                {
                    "attributes" : {
                        "POSITION" : 20,
                        "NORMAL" : 21,
                        "TEXCOORD_0" : 22
                    },
                    "indices" : 3,
                    "material" : 0
                },
                {
                    "attributes" : {
                        "POSITION" : 23,
                        "NORMAL" : 24,
                        "TEXCOORD_0" : 25
                    },
                    "indices" : 7,
                    "material" : 1
                }
            ]
        },
        {
            "name" : "Cube.004",
            "primitives" : [
                {
                    "attributes" : {
                        "POSITION" : 26,
                        "NORMAL" : 27,
                        "TEXCOORD_0" : 28
                    },
                    "indices" : 29,
                    "material" : 2
                }
            ]
        }
    ],
    "accessors" : [
        {
            "bufferView" : 0,
            "componentType" : 5126,
            "count" : 472,
            "max" : [
                1,
                1.7719123363494873,
                1.0000001192092896
            ],
            "min" : [
                -1,
                -2.369760751724243,
                -2.952441930770874
            ],
            "type" : "VEC3"
        },
        {
            "bufferView" : 1,
            "componentType" : 5126,
            "count" : 472,
            "type" : "VEC3"
        },
        {
            "bufferView" : 2,
            "componentType" : 5126,
            "count" : 472,
            "type" : "VEC2"
        },
        {
            "bufferView" : 3,
            "componentType" : 5123,
            "count" : 792,
            "type" : "SCALAR"
        },
        {
            "bufferView" : 4,
            "componentType" : 5126,
            "count" : 128,
            "max" : [
                0.9093432426452637,
                1.4352989196777344,
                0.9093432426452637
            ],
            "min" : [
                -0.9093432426452637,
                1.4334014654159546,
                -0.9093432426452637
            ],
            "type" : "VEC3"
        },
        {
            "bufferView" : 5,
            "componentType" : 5126,
            "count" : 128,
            "type" : "VEC3"
        },
        {
            "bufferView" : 6,
            "componentType" : 5126,
            "count" : 128,
            "type" : "VEC2"
        },
        {
            "bufferView" : 7,
            "componentType" : 5123,
            "count" : 192,
            "type" : "SCALAR"
        },
        {
            "bufferView" : 8,
            "componentType" : 5126,
            "count" : 472,
            "max" : [
                1,
                1.7719123363494873,
                1.0000001192092896
            ],
            "min" : [
                -1,
                -2.369760751724243,
                -2.952441930770874
            ],
            "type" : "VEC3"
        },
        {
            "bufferView" : 9,
            "componentType" : 5126,
            "count" : 472,
            "type" : "VEC3"
        },
        {
            "bufferView" : 10,
            "componentType" : 5126,
            "count" : 472,
            "type" : "VEC2"
        },
        {
            "bufferView" : 11,
            "componentType" : 5126,
            "count" : 128,
            "max" : [
                0.9093432426452637,
                1.4352989196777344,
                0.9093432426452637
            ],
            "min" : [
                -0.9093432426452637,
                1.4334014654159546,
                -0.9093432426452637
            ],
            "type" : "VEC3"
        },
        {
            "bufferView" : 12,
            "componentType" : 5126,
            "count" : 128,
            "type" : "VEC3"
        },
        {
            "bufferView" : 13,
            "componentType" : 5126,
            "count" : 128,
            "type" : "VEC2"
        },
        {
            "bufferView" : 14,
            "componentType" : 5126,
            "count" : 472,
            "max" : [
                1,
                1.7719123363494873,
                1.0000001192092896
            ],
            "min" : [
                -1,
                -2.369760751724243,
                -2.952441930770874
            ],
            "type" : "VEC3"
        },
        {
            "bufferView" : 15,
            "componentType" : 5126,
            "count" : 472,
            "type" : "VEC3"
        },
        {
            "bufferView" : 16,
            "componentType" : 5126,
            "count" : 472,
            "type" : "VEC2"
        },
        {
            "bufferView" : 17,
            "componentType" : 5126,
            "count" : 128,
            "max" : [
                0.9093432426452637,
                1.4352989196777344,
                0.9093432426452637
            ],
            "min" : [
                -0.9093432426452637,
                1.4334014654159546,
                -0.9093432426452637
            ],
            "type" : "VEC3"
        },
        {
            "bufferView" : 18,
            "componentType" : 5126,
            "count" : 128,
            "type" : "VEC3"
        },
        {
            "bufferView" : 19,
            "componentType" : 5126,
            "count" : 128,
            "type" : "VEC2"
        },
        {
            "bufferView" : 20,
            "componentType" : 5126,
            "count" : 472,
            "max" : [
                1,
                1.7719123363494873,
                1.0000001192092896
            ],
            "min" : [
                -1,
                -2.369760751724243,
                -2.952441930770874
            ],
            "type" : "VEC3"
        },
        {
            "bufferView" : 21,
            "componentType" : 5126,
            "count" : 472,
            "type" : "VEC3"
        },
        {
            "bufferView" : 22,
            "componentType" : 5126,
            "count" : 472,
            "type" : "VEC2"
        },
        {
            "bufferView" : 23,
            "componentType" : 5126,
            "count" : 128,
            "max" : [
                0.9093432426452637,
                1.4352989196777344,
                0.9093432426452637
            ],
            "min" : [
                -0.9093432426452637,
                1.4334014654159546,
                -0.9093432426452637
            ],
            "type" : "VEC3"
        },
        {
            "bufferView" : 24,
            "componentType" : 5126,
            "count" : 128,
            "type" : "VEC3"
        },
        {
            "bufferView" : 25,
            "componentType" : 5126,
            "count" : 128,
            "type" : "VEC2"
        },
        {
            "bufferView" : 26,
            "componentType" : 5126,
            "count" : 24,
            "max" : [
                1,
                1,
                1
            ],
            "min" : [
                -1,
                -1,
                -1
            ],
            "type" : "VEC3"
        },
        {
            "bufferView" : 27,
            "componentType" : 5126,
            "count" : 24,
            "type" : "VEC3"
        },
        {
            "bufferView" : 28,
            "componentType" : 5126,
            "count" : 24,
            "type" : "VEC2"
        },
        {
            "bufferView" : 29,
            "componentType" : 5123,
            "count" : 36,
            "type" : "SCALAR"
        }
    ],
    "bufferViews" : [
        {
            "buffer" : 0,
            "byteLength" : 5664,
            "byteOffset" : 0
        },
        {
            "buffer" : 0,
            "byteLength" : 5664,
            "byteOffset" : 5664
        },
        {
            "buffer" : 0,
            "byteLength" : 3776,
            "byteOffset" : 11328
        },
        {
            "buffer" : 0,
            "byteLength" : 1584,
            "byteOffset" : 15104
        },
        {
            "buffer" : 0,
            "byteLength" : 1536,
            "byteOffset" : 16688
        },
        {
            "buffer" : 0,
            "byteLength" : 1536,
            "byteOffset" : 18224
        },
        {
            "buffer" : 0,
            "byteLength" : 1024,
            "byteOffset" : 19760
        },
        {
            "buffer" : 0,
            "byteLength" : 384,
            "byteOffset" : 20784
        },
        {
            "buffer" : 0,
            "byteLength" : 5664,
            "byteOffset" : 21168
        },
        {
            "buffer" : 0,
            "byteLength" : 5664,
            "byteOffset" : 26832
        },
        {
            "buffer" : 0,
            "byteLength" : 3776,
            "byteOffset" : 32496
        },
        {
            "buffer" : 0,
            "byteLength" : 1536,
            "byteOffset" : 36272
        },
        {
            "buffer" : 0,
            "byteLength" : 1536,
            "byteOffset" : 37808
        },
        {
            "buffer" : 0,
            "byteLength" : 1024,
            "byteOffset" : 39344
        },
        {
            "buffer" : 0,
            "byteLength" : 5664,
            "byteOffset" : 40368
        },
        {
            "buffer" : 0,
            "byteLength" : 5664,
            "byteOffset" : 46032
        },
        {
            "buffer" : 0,
            "byteLength" : 3776,
            "byteOffset" : 51696
        },
        {
            "buffer" : 0,
            "byteLength" : 1536,
            "byteOffset" : 55472
        },
        {
            "buffer" : 0,
            "byteLength" : 1536,
            "byteOffset" : 57008
        },
        {
            "buffer" : 0,
            "byteLength" : 1024,
            "byteOffset" : 58544
        },
        {
            "buffer" : 0,
            "byteLength" : 5664,
            "byteOffset" : 59568
        },
        {
            "buffer" : 0,
            "byteLength" : 5664,
            "byteOffset" : 65232
        },
        {
            "buffer" : 0,
            "byteLength" : 3776,
            "byteOffset" : 70896
        },
        {
            "buffer" : 0,
            "byteLength" : 1536,
            "byteOffset" : 74672
        },
        {
            "buffer" : 0,
            "byteLength" : 1536,
            "byteOffset" : 76208
        },
        {
            "buffer" : 0,
            "byteLength" : 1024,
            "byteOffset" : 77744
        },
        {
            "buffer" : 0,
            "byteLength" : 288,
            "byteOffset" : 78768
        },
        {
            "buffer" : 0,
            "byteLength" : 288,
            "byteOffset" : 79056
        },
        {
            "buffer" : 0,
            "byteLength" : 192,
            "byteOffset" : 79344
        },
        {
            "buffer" : 0,
            "byteLength" : 72,
            "byteOffset" : 79536
        }
    ],
    "buffers" : [
        {
            "byteLength" : 79608,
            "uri" : "data:application/octet-stream;base64,"
        }
    ]
}
