{
    "asset" : {
        "generator" : "Khronos glTF Blender I/O v1.7.33",
        "version" : "2.0"
    },
    "scene" : 0,
    "scenes" : [
        {
            "name" : "Scene",
            "nodes" : [
                5
            ]
        }
    ],
    "nodes" : [
        {
            "mesh" : 0,
            "name" : "Pattern2D_1116363_Node.001"
        },
        {
            "mesh" : 1,
            "name" : "Pattern2D_1116363_Node.002",
            "scale" : [
                1.0021625757217407,
                1.0021625757217407,
                1.0021625757217407
            ],
            "translation" : [
                0,
                -0.004042092710733414,
                0
            ]
        },
        {
            "mesh" : 2,
            "name" : "Pattern2D_1116363_Node.003",
            "translation" : [
                0,
                0,
                0.0005118702538311481
            ]
        },
        {
            "mesh" : 3,
            "name" : "Pattern2D_1116363_Node.004"
        },
        {
            "children" : [
                0,
                1,
                2,
                3
            ],
            "name" : "Cloth"
        },
        {
            "children" : [
                4
            ],
            "name" : "hoodie gltf_Scene_Node",
            "rotation" : [
                0,
                -1,
                0,
                4.371138828673793e-08
            ]
        }
    ],
    "materials" : [
        {
            "doubleSided" : true,
            "name" : "body",
            "pbrMetallicRoughness" : {
                "baseColorFactor" : [
                    0.800000011920929,
                    0.800000011920929,
                    0.800000011920929,
                    1
                ],
                "metallicFactor" : 0,
                "roughnessFactor" : 0.4000000059604645
            }
        },
        {
            "doubleSided" : true,
            "name" : "graphic",
            "pbrMetallicRoughness" : {
                "baseColorFactor" : [
                    0.8000000715255737,
                    0,
                    0.0008755846065469086,
                    1
                ],
                "metallicFactor" : 0,
                "roughnessFactor" : 0.5
            }
        }
    ],
    "meshes" : [
        {
            "name" : "Pattern2D_1116363.001",
            "primitives" : [
                {
                    "attributes" : {
                        "POSITION" : 0,
                        "NORMAL" : 1,
                        "TEXCOORD_0" : 2
                    },
                    "indices" : 3,
                    "material" : 0
                }
            ]
        },
        {
            "name" : "Pattern2D_1116363.002",
            "primitives" : [
                {
                    "attributes" : {
                        "POSITION" : 4,
                        "NORMAL" : 5,
                        "TEXCOORD_0" : 6
                    },
                    "indices" : 7,
                    "material" : 0
                }
            ]
        },
        {
            "name" : "Pattern2D_1116363.003",
            "primitives" : [
                {
                    "attributes" : {
                        "POSITION" : 8,
                        "NORMAL" : 9,
                        "TEXCOORD_0" : 10
                    },
                    "indices" : 11,
                    "material" : 1
                }
            ]
        },
        {
            "name" : "Pattern2D_1116363.004",
            "primitives" : [
                {
                    "attributes" : {
                        "POSITION" : 12,
                        "NORMAL" : 13,
                        "TEXCOORD_0" : 14
                    },
                    "indices" : 15,
                    "material" : 0
                }
            ]
        }
    ],
    "accessors" : [
        {
            "bufferView" : 0,
            "componentType" : 5126,
            "count" : 37361,
            "max" : [
                0.3332762122154236,
                0.31452152132987976,
                0.12452409416437149
            ],
            "min" : [
                -0.32664504647254944,
                -0.3751884698867798,
                -0.1504380702972412
            ],
            "type" : "VEC3"
        },
        {
            "bufferView" : 1,
            "componentType" : 5126,
            "count" : 37361,
            "type" : "VEC3"
        },
        {
            "bufferView" : 2,
            "componentType" : 5126,
            "count" : 37361,
            "type" : "VEC2"
        },
        {
            "bufferView" : 3,
            "componentType" : 5123,
            "count" : 202701,
            "type" : "SCALAR"
        },
        {
            "bufferView" : 4,
            "componentType" : 5126,
            "count" : 9848,
            "max" : [
                0.11805915087461472,
                0.6244620084762573,
                0.12195627391338348
            ],
            "min" : [
                -0.11902830749750137,
                0.25958138704299927,
                -0.13365395367145538
            ],
            "type" : "VEC3"
        },
        {
            "bufferView" : 5,
            "componentType" : 5126,
            "count" : 9848,
            "type" : "VEC3"
        },
        {
            "bufferView" : 6,
            "componentType" : 5126,
            "count" : 9848,
            "type" : "VEC2"
        },
        {
            "bufferView" : 7,
            "componentType" : 5123,
            "count" : 58992,
            "type" : "SCALAR"
        },
        {
            "bufferView" : 8,
            "componentType" : 5126,
            "count" : 864,
            "max" : [
                0.14583510160446167,
                0.21592950820922852,
                -0.10709808021783829
            ],
            "min" : [
                -0.1375628113746643,
                -0.06622826308012009,
                -0.14838245511054993
            ],
            "type" : "VEC3"
        },
        {
            "bufferView" : 9,
            "componentType" : 5126,
            "count" : 864,
            "type" : "VEC3"
        },
        {
            "bufferView" : 10,
            "componentType" : 5126,
            "count" : 864,
            "type" : "VEC2"
        },
        {
            "bufferView" : 11,
            "componentType" : 5123,
            "count" : 4518,
            "type" : "SCALAR"
        },
        {
            "bufferView" : 12,
            "componentType" : 5126,
            "count" : 1052,
            "max" : [
                0.17227236926555634,
                -0.08674555271863937,
                0.1260206699371338
            ],
            "min" : [
                -0.1728224754333496,
                -0.3005662262439728,
                0.08500080555677414
            ],
            "type" : "VEC3"
        },
        {
            "bufferView" : 13,
            "componentType" : 5126,
            "count" : 1052,
            "type" : "VEC3"
        },
        {
            "bufferView" : 14,
            "componentType" : 5126,
            "count" : 1052,
            "type" : "VEC2"
        },
        {
            "bufferView" : 15,
            "componentType" : 5123,
            "count" : 5874,
            "type" : "SCALAR"
        }
    ],
    "bufferViews" : [
        {
            "buffer" : 0,
            "byteLength" : 448332,
            "byteOffset" : 0
        },
        {
            "buffer" : 0,
            "byteLength" : 448332,
            "byteOffset" : 448332
        },
        {
            "buffer" : 0,
            "byteLength" : 298888,
            "byteOffset" : 896664
        },
        {
            "buffer" : 0,
            "byteLength" : 405402,
            "byteOffset" : 1195552
        },
        {
            "buffer" : 0,
            "byteLength" : 118176,
            "byteOffset" : 1600956
        },
        {
            "buffer" : 0,
            "byteLength" : 118176,
            "byteOffset" : 1719132
        },
        {
            "buffer" : 0,
            "byteLength" : 78784,
            "byteOffset" : 1837308
        },
        {
            "buffer" : 0,
            "byteLength" : 117984,
            "byteOffset" : 1916092
        },
        {
            "buffer" : 0,
            "byteLength" : 10368,
            "byteOffset" : 2034076
        },
        {
            "buffer" : 0,
            "byteLength" : 10368,
            "byteOffset" : 2044444
        },
        {
            "buffer" : 0,
            "byteLength" : 6912,
            "byteOffset" : 2054812
        },
        {
            "buffer" : 0,
            "byteLength" : 9036,
            "byteOffset" : 2061724
        },
        {
            "buffer" : 0,
            "byteLength" : 12624,
            "byteOffset" : 2070760
        },
        {
            "buffer" : 0,
            "byteLength" : 12624,
            "byteOffset" : 2083384
        },
        {
            "buffer" : 0,
            "byteLength" : 8416,
            "byteOffset" : 2096008
        },
        {
            "buffer" : 0,
            "byteLength" : 11748,
            "byteOffset" : 2104424
        }
    ],
    "buffers" : [
        {
            "byteLength" : 2116172,
            "uri" : "data:application/octet-stream;base64,"
        }
    ]
}
