{
    "asset" : {
        "generator" : "Khronos glTF Blender I/O v1.7.33",
        "version" : "2.0"
    },
    "scene" : 0,
    "scenes" : [
        {
            "name" : "Scene",
            "nodes" : [
                0
            ]
        }
    ],
    "nodes" : [
        {
            "mesh" : 0,
            "name" : "Piano",
            "scale" : [
                0.7154178619384766,
                0.47606590390205383,
                0.22382749617099762
            ],
            "translation" : [
                2.6921067237854004,
                0.2646314799785614,
                -4.597938060760498
            ]
        }
    ],
    "materials" : [
        {
            "doubleSided" : true,
            "name" : "Piano surface",
            "pbrMetallicRoughness" : {
                "baseColorFactor" : [
                    0,
                    0.3897000253200531,
                    1,
                    1
                ],
                "metallicFactor" : 0.4603174924850464,
                "roughnessFactor" : 0.0873015895485878
            }
        },
        {
            "doubleSided" : true,
            "name" : "Material.011",
            "pbrMetallicRoughness" : {
                "baseColorTexture" : {
                    "index" : 0
                },
                "metallicFactor" : 0,
                "roughnessFactor" : 0.5
            }
        }
    ],
    "meshes" : [
        {
            "name" : "Cube.006",
            "primitives" : [
                {
                    "attributes" : {
                        "POSITION" : 0,
                        "NORMAL" : 1,
                        "TEXCOORD_0" : 2
                    },
                    "indices" : 3,
                    "material" : 0
                },
                {
                    "attributes" : {
                        "POSITION" : 4,
                        "NORMAL" : 5,
                        "TEXCOORD_0" : 6
                    },
                    "indices" : 7,
                    "material" : 1
                }
            ]
        }
    ],
    "textures" : [
        {
            "sampler" : 0,
            "source" : 0
        }
    ],
    "images" : [
        {
            "bufferView" : 8,
            "mimeType" : "image/png",
            "name" : "bookcover"
        }
    ],
    "accessors" : [
        {
            "bufferView" : 0,
            "componentType" : 5126,
            "count" : 554,
            "max" : [
                1.0491694211959839,
                0.8843485713005066,
                1.6256426572799683
            ],
            "min" : [
                -1.0491695404052734,
                -1.4418542385101318,
                -1.309445858001709
            ],
            "type" : "VEC3"
        },
        {
            "bufferView" : 1,
            "componentType" : 5126,
            "count" : 554,
            "type" : "VEC3"
        },
        {
            "bufferView" : 2,
            "componentType" : 5126,
            "count" : 554,
            "type" : "VEC2"
        },
        {
            "bufferView" : 3,
            "componentType" : 5123,
            "count" : 1416,
            "type" : "SCALAR"
        },
        {
            "bufferView" : 4,
            "componentType" : 5126,
            "count" : 4,
            "max" : [
                0.318412184715271,
                0.335764616727829,
                0.3116326928138733
            ],
            "min" : [
                -0.31841161847114563,
                0.15031370520591736,
                0.3116326928138733
            ],
            "type" : "VEC3"
        },
        {
            "bufferView" : 5,
            "componentType" : 5126,
            "count" : 4,
            "type" : "VEC3"
        },
        {
            "bufferView" : 6,
            "componentType" : 5126,
            "count" : 4,
            "type" : "VEC2"
        },
        {
            "bufferView" : 7,
            "componentType" : 5123,
            "count" : 6,
            "type" : "SCALAR"
        }
    ],
    "bufferViews" : [
        {
            "buffer" : 0,
            "byteLength" : 6648,
            "byteOffset" : 0
        },
        {
            "buffer" : 0,
            "byteLength" : 6648,
            "byteOffset" : 6648
        },
        {
            "buffer" : 0,
            "byteLength" : 4432,
            "byteOffset" : 13296
        },
        {
            "buffer" : 0,
            "byteLength" : 2832,
            "byteOffset" : 17728
        },
        {
            "buffer" : 0,
            "byteLength" : 48,
            "byteOffset" : 20560
        },
        {
            "buffer" : 0,
            "byteLength" : 48,
            "byteOffset" : 20608
        },
        {
            "buffer" : 0,
            "byteLength" : 32,
            "byteOffset" : 20656
        },
        {
            "buffer" : 0,
            "byteLength" : 12,
            "byteOffset" : 20688
        },
        {
            "buffer" : 0,
            "byteLength" : 92092,
            "byteOffset" : 20700
        }
    ],
    "samplers" : [
        {
            "magFilter" : 9729,
            "minFilter" : 9987
        }
    ],
    "buffers" : [
        {
            "byteLength" : 112792,
            "uri" : "data:application/octet-stream;base64,"
        }
    ]
}
