{
    "asset" : {
        "generator" : "Khronos glTF Blender I/O v1.7.33",
        "version" : "2.0"
    },
    "scene" : 0,
    "scenes" : [
        {
            "name" : "Scene",
            "nodes" : [
                0,
                1,
                2
            ]
        }
    ],
    "nodes" : [
        {
            "mesh" : 0,
            "name" : "Plane.010_Plane.017",
            "rotation" : [
                0.7071068286895752,
                0,
                0,
                0.7071067094802856
            ],
            "scale" : [
                0.7447397708892822,
                0.7447397708892822,
                0.7447397708892822
            ],
            "translation" : [
                -3.3492565155029297,
                -0.45470523834228516,
                -4.138050556182861
            ]
        },
        {
            "mesh" : 1,
            "name" : "Plane.011_Plane.018",
            "rotation" : [
                0.7071068286895752,
                0,
                0,
                0.7071067094802856
            ],
            "scale" : [
                0.7447397708892822,
                0.7447397708892822,
                0.7447397708892822
            ],
            "translation" : [
                -3.3492565155029297,
                -0.45470523834228516,
                -4.138050556182861
            ]
        },
        {
            "mesh" : 2,
            "name" : "Plane.012_Plane.019",
            "rotation" : [
                0.7071068286895752,
                0,
                0,
                0.7071067094802856
            ],
            "scale" : [
                0.7447397708892822,
                0.7447397708892822,
                0.7447397708892822
            ],
            "translation" : [
                -3.3492565155029297,
                -0.45470523834228516,
                -4.138050556182861
            ]
        }
    ],
    "materials" : [
        {
            "doubleSided" : true,
            "name" : "Coffee_Table",
            "pbrMetallicRoughness" : {
                "baseColorFactor" : [
                    0,
                    0.23371803760528564,
                    1,
                    1
                ],
                "metallicFactor" : 0,
                "roughnessFactor" : 0.13809522986412048
            }
        }
    ],
    "meshes" : [
        {
            "name" : "Plane.010_Plane.017",
            "primitives" : [
                {
                    "attributes" : {
                        "POSITION" : 0,
                        "NORMAL" : 1,
                        "TEXCOORD_0" : 2
                    },
                    "indices" : 3,
                    "material" : 0
                }
            ]
        },
        {
            "name" : "Plane.011_Plane.018",
            "primitives" : [
                {
                    "attributes" : {
                        "POSITION" : 4,
                        "NORMAL" : 5,
                        "TEXCOORD_0" : 6
                    },
                    "indices" : 7,
                    "material" : 0
                }
            ]
        },
        {
            "name" : "Plane.012_Plane.019",
            "primitives" : [
                {
                    "attributes" : {
                        "POSITION" : 8,
                        "NORMAL" : 9,
                        "TEXCOORD_0" : 10
                    },
                    "indices" : 11,
                    "material" : 0
                }
            ]
        }
    ],
    "accessors" : [
        {
            "bufferView" : 0,
            "componentType" : 5126,
            "count" : 400,
            "max" : [
                1,
                1.5,
                -0.17000000178813934
            ],
            "min" : [
                -1,
                0.5,
                -0.5
            ],
            "type" : "VEC3"
        },
        {
            "bufferView" : 1,
            "componentType" : 5126,
            "count" : 400,
            "type" : "VEC3"
        },
        {
            "bufferView" : 2,
            "componentType" : 5126,
            "count" : 400,
            "type" : "VEC2"
        },
        {
            "bufferView" : 3,
            "componentType" : 5123,
            "count" : 1800,
            "type" : "SCALAR"
        },
        {
            "bufferView" : 4,
            "componentType" : 5126,
            "count" : 852,
            "max" : [
                0.7036740183830261,
                1.437006950378418,
                -9.40000027185306e-05
            ],
            "min" : [
                -0.7036740183830261,
                0.5629929900169373,
                -0.4588969945907593
            ],
            "type" : "VEC3"
        },
        {
            "bufferView" : 5,
            "componentType" : 5126,
            "count" : 852,
            "type" : "VEC3"
        },
        {
            "bufferView" : 6,
            "componentType" : 5126,
            "count" : 852,
            "type" : "VEC2"
        },
        {
            "bufferView" : 7,
            "componentType" : 5123,
            "count" : 3408,
            "type" : "SCALAR"
        },
        {
            "bufferView" : 8,
            "componentType" : 5126,
            "count" : 586,
            "max" : [
                0.6866170167922974,
                1.391144037246704,
                -0.15749000012874603
            ],
            "min" : [
                -0.6866170167922974,
                0.6141589879989624,
                -0.3919000029563904
            ],
            "type" : "VEC3"
        },
        {
            "bufferView" : 9,
            "componentType" : 5126,
            "count" : 586,
            "type" : "VEC3"
        },
        {
            "bufferView" : 10,
            "componentType" : 5126,
            "count" : 586,
            "type" : "VEC2"
        },
        {
            "bufferView" : 11,
            "componentType" : 5123,
            "count" : 2640,
            "type" : "SCALAR"
        }
    ],
    "bufferViews" : [
        {
            "buffer" : 0,
            "byteLength" : 4800,
            "byteOffset" : 0
        },
        {
            "buffer" : 0,
            "byteLength" : 4800,
            "byteOffset" : 4800
        },
        {
            "buffer" : 0,
            "byteLength" : 3200,
            "byteOffset" : 9600
        },
        {
            "buffer" : 0,
            "byteLength" : 3600,
            "byteOffset" : 12800
        },
        {
            "buffer" : 0,
            "byteLength" : 10224,
            "byteOffset" : 16400
        },
        {
            "buffer" : 0,
            "byteLength" : 10224,
            "byteOffset" : 26624
        },
        {
            "buffer" : 0,
            "byteLength" : 6816,
            "byteOffset" : 36848
        },
        {
            "buffer" : 0,
            "byteLength" : 6816,
            "byteOffset" : 43664
        },
        {
            "buffer" : 0,
            "byteLength" : 7032,
            "byteOffset" : 50480
        },
        {
            "buffer" : 0,
            "byteLength" : 7032,
            "byteOffset" : 57512
        },
        {
            "buffer" : 0,
            "byteLength" : 4688,
            "byteOffset" : 64544
        },
        {
            "buffer" : 0,
            "byteLength" : 5280,
            "byteOffset" : 69232
        }
    ],
    "buffers" : [
        {
            "byteLength" : 74512,
            "uri" : "data:application/octet-stream;base64,"
        }
    ]
}
