<?xml version="1.0" encoding="UTF-8"?>
<svg id="Layer_2" data-name="Layer 2" xmlns="http://www.w3.org/2000/svg" viewBox="0 0 226.05 48.25">
  <defs>
    <style>
      .cls-1 {
        fill: #231f20;
        stroke-width: 0px;
      }
    </style>
  </defs>
  <g id="Layer_1-2" data-name="Layer 1">
    <rect class="cls-1" x="180.27" y=".82" width="6.3" height="25.54"/>
    <rect class="cls-1" x="148.83" y="35.34" width="3.14" height="12.73"/>
    <rect class="cls-1" x="63.24" y="34.96" width="3.14" height="12.73"/>
    <path class="cls-1" d="m32.92,19.84v6.96s-4.44,2.28-8.63,0-5.29-5.12-5.78-8.99-.34-11.28,4.34-14.52c4.68-3.24,9.66-1.48,9.66-1.48l.05,7.45s-3.45-3.92-6.06-.14c-1.92,2.79-.97,9.04-.97,9.04,0,0,1.06,3.44,3.7,3.45,2.22,0,3.69-1.76,3.69-1.76Z"/>
    <path class="cls-1" d="m112.98,19.27v6.89s-4.4,2.26-8.56,0c-4.16-2.26-5.24-5.07-5.73-8.91s-.34-11.18,4.3-14.39c4.64-3.21,9.57-1.47,9.57-1.47l.05,7.38s-3.42-3.89-6-.14c-1.91,2.76-.96,8.96-.96,8.96,0,0,1.05,3.41,3.67,3.42,2.2,0,3.66-1.74,3.66-1.74Z"/>
    <polygon class="cls-1" points="34.79 1.33 34.79 7.74 38.41 7.74 38.41 27.8 44.97 27.8 44.97 7.58 48.8 7.58 48.8 1.33 34.79 1.33"/>
    <polygon class="cls-1" points="164.98 .69 164.98 7.11 168.6 7.11 168.6 27.17 175.17 27.17 175.17 6.95 178.99 6.95 178.99 .69 164.98 .69"/>
    <polygon class="cls-1" points="209.5 26.48 209.5 .69 215.15 .69 220.13 15.66 220.13 .69 226.05 .69 226.05 26.48 219.59 26.48 215.56 13.59 215.83 26.48 209.5 26.48"/>
    <polygon class="cls-1" points="74.66 47.75 74.66 34.9 77.48 34.9 79.96 42.36 79.96 34.9 82.91 34.9 82.91 47.75 79.69 47.75 77.68 41.33 77.82 47.75 74.66 47.75"/>
    <path class="cls-1" d="m132.26,26.69l-4.7-10.62s3.22-.44,3.66-6.84c.48-6.96-7.02-8.3-7.02-8.3h-8.67v26.01h6.35l-.18-10.38,3.6,10.38,6.96-.24Zm-7.42-16.74c-.42,3-2.94,2.64-2.94,2.64v-6.11s3.46-.22,2.94,3.46Z"/>
    <path class="cls-1" d="m62.51,47.69l-2.34-5.3s1.61-.22,1.83-3.41c.24-3.47-3.5-4.14-3.5-4.14h-4.32v12.97h3.17l-.09-5.17,1.8,5.17,3.47-.12Zm-3.7-8.34c-.21,1.5-1.47,1.32-1.47,1.32v-3.04s1.73-.11,1.47,1.73Z"/>
    <path class="cls-1" d="m13.53,1.33H5.41L0,27.11h6.69l.32-3.18h4.14l.64,3.18h7L13.53,1.33Zm-5.44,17.27l1.31-10.17,1.26,10.17h-2.57Z"/>
    <path class="cls-1" d="m132.75,35.25h-4.05l-2.7,12.85h3.33l.16-1.59h2.06l.32,1.59h3.49l-2.62-12.85Zm-2.71,8.61l.65-5.07.63,5.07h-1.28Z"/>
    <path class="cls-1" d="m160.48,1.04h-8.12l-5.41,25.79h6.69l.32-3.18h4.14l.64,3.18h7l-5.25-25.79Zm-5.44,17.27l1.31-10.17,1.26,10.17h-2.57Z"/>
    <polygon class="cls-1" points="83.25 27.4 76.65 27.4 76.65 1.04 88.15 1.04 88.15 7.38 83.33 7.29 83.33 10.5 88.15 10.5 88.15 17.09 83.41 17.01 83.25 27.4"/>
    <polygon class="cls-1" points="50.06 47.9 46.78 47.9 46.78 34.75 52.51 34.75 52.51 37.91 50.11 37.87 50.11 39.47 52.51 39.47 52.51 42.76 50.15 42.72 50.06 47.9"/>
    <polygon class="cls-1" points="123.66 48.25 120.37 48.25 120.37 35.1 126.1 35.1 126.1 38.26 123.7 38.22 123.7 39.82 126.1 39.82 126.1 43.11 123.74 43.07 123.66 48.25"/>
    <polygon class="cls-1" points="133.69 .94 133.76 26.93 145.69 26.93 145.69 21.06 140.17 21.06 140.17 16.87 145.07 16.83 145.15 10.49 140.17 10.38 140.17 7.15 145.69 7.11 145.69 .94 133.69 .94"/>
    <polygon class="cls-1" points="67.66 34.85 67.7 47.8 73.65 47.8 73.65 44.88 70.9 44.88 70.9 42.79 73.34 42.77 73.38 39.61 70.9 39.55 70.9 37.95 73.65 37.93 73.65 34.85 67.66 34.85"/>
    <path class="cls-1" d="m65.12,1.04c-5.42,0-9.82,5.98-9.82,13.36s4.4,13.36,9.82,13.36,9.82-5.98,9.82-13.36-4.4-13.36-9.82-13.36Zm-.05,19.52c-1.33,0-2.41-2.88-2.41-6.44s1.08-6.44,2.41-6.44,2.41,2.88,2.41,6.44-1.08,6.44-2.41,6.44Z"/>
    <path class="cls-1" d="m198.03,0c-5.35,0-9.69,5.9-9.69,13.19s4.34,13.19,9.69,13.19,9.69-5.9,9.69-13.19-4.34-13.19-9.69-13.19Zm-.05,19.27c-1.31,0-2.37-2.85-2.37-6.36s1.06-6.36,2.37-6.36,2.37,2.85,2.37,6.36-1.06,6.36-2.37,6.36Z"/>
    <path class="cls-1" d="m87.36,34.9h-3.47v12.85h4.07s3.73-.27,4.05-6.43c.32-6.16-4.65-6.43-4.65-6.43Zm-.27,9.65v-6.43s1.69-.13,1.75,3.21c.05,3.35-1.75,3.21-1.75,3.21Z"/>
    <path class="cls-1" d="m95.74,38.5c.92-1.48,2.57.78,2.57.78l.06-3.67s-2.24-1.49-4.36,0c-.71.5-1.08,1.22-1.26,1.96-.39,1.58.03,3.28,1.15,4.47.4.43,1.09.75,1.49,1.28.03.04.29.82-.17,1.02-.81.36-1.19.23-1.86-.35-.21-.18-.57-.44-.76-.74-.07-.11,0,4.05,0,4.05,0,0,3.01,1.12,4.35.03s2.91-3.95.6-6.53c-.82-.92-1.83-1.28-1.82-2.27"/>
    <path class="cls-1" d="m112.66,44.28l1.07-.68-1.3-1.65s-.59.63-.97.69c-.48.08-.9-.93-.61-1.06,1.53-.71,1.23-2.42,1.23-2.42,0,0-.86-3.69-4.05-2.26-2.6,1.16-.75,3.84-.75,3.84.09.47-.42.7-.42.7,0,0-2.59,2.17-.28,4.1,2.31,1.93,4.55.21,4.55.21l.3.33h2.31l-.96-.91-.12-.89Zm-3.13-.13c-.14.24-.56.26-.94.05-.38-.22-.57-.59-.43-.83.14-.24.56-.26.94-.05.38.22.57.59.43.83Zm-.2-4.33c-.36,0-.66-.33-.66-.73s.29-.73.66-.73.66.33.66.73-.29.73-.66.73Z"/>
    <polygon class="cls-1" points="135.81 48.09 139.18 48.09 139.52 40.68 140.57 48.09 143.35 48.09 144.49 40.68 144.94 48.09 148.01 48.09 146.9 35.31 143.1 35.31 142.05 41.52 141.03 35.31 137.2 35.31 135.81 48.09"/>
    <polygon class="cls-1" points="153.06 35.34 156.2 35.34 156.2 44.81 158.62 44.81 158.62 48.02 153.06 48.02 153.06 35.34"/>
    <polygon class="cls-1" points="157.26 35.37 160.69 35.37 161.68 39.15 162.75 35.37 165.96 35.37 163.32 42.54 163.32 47.98 160.19 47.98 160.19 42.54 157.26 35.37"/>
  </g>
</svg>