<?xml version="1.0" encoding="UTF-8"?>
<svg id="Layer_2" data-name="Layer 2" xmlns="http://www.w3.org/2000/svg" viewBox="0 0 226.07 27.24">
  <defs>
    <style>
      .cls-1 {
        fill: #231f20;
        stroke-width: 0px;
      }
    </style>
  </defs>
  <g id="Layer_1-2" data-name="Layer 1">
    <rect class="cls-1" x="180.29" y=".82" width="6.3" height="26.01"/>
    <path class="cls-1" d="m32.94,19.15v6.96s-4.44,2.28-8.63,0-5.29-5.12-5.78-8.99-.34-11.28,4.34-14.52c4.68-3.24,9.66-1.48,9.66-1.48l.05,7.45s-3.45-3.92-6.06-.14c-1.92,2.79-.97,9.04-.97,9.04,0,0,1.06,3.44,3.7,3.45,2.22,0,3.69-1.76,3.69-1.76Z"/>
    <path class="cls-1" d="m113,19.1v6.89s-4.4,2.26-8.56,0c-4.16-2.26-5.24-5.07-5.73-8.91s-.34-11.18,4.3-14.39c4.64-3.21,9.57-1.47,9.57-1.47l.05,7.38s-3.42-3.89-6-.14c-1.91,2.76-.96,8.96-.96,8.96,0,0,1.05,3.41,3.67,3.42,2.2,0,3.66-1.74,3.66-1.74Z"/>
    <polygon class="cls-1" points="34.81 .64 34.81 7.05 38.43 7.05 38.43 27.12 45 27.12 45 6.9 48.82 6.9 48.82 .64 34.81 .64"/>
    <polygon class="cls-1" points="165 .69 165 7.02 168.62 7.02 168.62 26.83 175.19 26.83 175.19 6.87 179.02 6.87 179.02 .69 165 .69"/>
    <polygon class="cls-1" points="209.52 26.48 209.52 .69 215.18 .69 220.15 15.66 220.15 .69 226.07 .69 226.07 26.48 219.62 26.48 215.58 13.59 215.85 26.48 209.52 26.48"/>
    <path class="cls-1" d="m132.29,26.83l-4.71-10.82s3.22-.44,3.66-6.81c.48-6.93-7.02-8.27-7.02-8.27h-8.67v25.9h6.35l-.18-10.34,3.6,10.34h6.97Zm-7.43-16.91c-.42,2.99-2.94,2.63-2.94,2.63v-6.08s3.46-.22,2.94,3.45Z"/>
    <path class="cls-1" d="m13.53.99H5.41L0,26.77h6.69l.32-3.18h4.14l.64,3.18h7L13.53.99Zm-5.44,17.27l1.31-10.17,1.26,10.17h-2.57Z"/>
    <path class="cls-1" d="m160.51,1.04h-8.12l-5.41,25.79h6.69l.32-3.18h4.14l.64,3.18h7l-5.25-25.79Zm-5.44,17.27l1.31-10.17,1.26,10.17h-2.57Z"/>
    <polygon class="cls-1" points="83.27 26.7 76.68 26.7 76.68 .33 88.17 .33 88.17 6.67 83.35 6.59 83.35 9.8 88.17 9.8 88.17 16.39 83.44 16.3 83.27 26.7"/>
    <polygon class="cls-1" points="133.71 .94 133.78 26.83 145.71 26.83 145.71 20.98 140.2 20.98 140.2 16.8 145.09 16.76 145.17 10.46 140.2 10.34 140.2 7.13 145.71 7.09 145.71 .94 133.71 .94"/>
    <path class="cls-1" d="m65.14.52c-5.42,0-9.82,5.98-9.82,13.36s4.4,13.36,9.82,13.36,9.82-5.98,9.82-13.36S70.56.52,65.14.52Zm-.05,19.52c-1.33,0-2.41-2.88-2.41-6.44s1.08-6.44,2.41-6.44,2.41,2.88,2.41,6.44-1.08,6.44-2.41,6.44Z"/>
    <path class="cls-1" d="m198.05,0c-5.35,0-9.69,6.01-9.69,13.41s4.34,13.41,9.69,13.41,9.69-6.01,9.69-13.41-4.34-13.41-9.69-13.41Zm-.05,19.6c-1.31,0-2.37-2.89-2.37-6.46s1.06-6.46,2.37-6.46,2.37,2.89,2.37,6.46-1.06,6.46-2.37,6.46Z"/>
  </g>
</svg>