<?xml version="1.0" encoding="UTF-8"?>
<svg id="Layer_2" data-name="Layer 2" xmlns="http://www.w3.org/2000/svg" viewBox="0 0 125.36 59.85">
  <defs>
    <style>
      .cls-1, .cls-2 {
        stroke-width: 0px;
      }

      .cls-2 {
        fill: #231f20;
      }
    </style>
  </defs>
  <g id="Layer_1-2" data-name="Layer 1">
    <g>
      <path class="cls-2" d="m13.27,41.72l-.32-1.17-.77.61-.32-.32-.52-1.92-.5.59-1.4-.68-.43-1.59-.51.34-.8-.74.15-.64-.3-.92-.31.94-.78-.64-.3-1.12-.46-.48-.42-1.54.62.23.3-.28-.47-1.93.64.28.21-1.46.62.13.03-1.01.65-.18s-.05-1.04.1-1.03.7-.19.7-.19l-.03-.79.7-.19.68-.43.75.2.48.57.57-.66.28,1.03.8-.16.97,3.6-1.85.4-.33-.87-.77.26-.38-.2-.16.44-.65.18.12.62-.23.46-.61.06.35,1.11.43.39.69-.39.72,1.81.66-.48.8,1.94.71-.49.49,1.47.32.32.51-.19-.27-1.18.77.09.1-.48-.84-3.13.98-.51.78.14.9.76.33-.34.91,3.37-.48.48-.55-.15.53,1.61-.17.6h-.56s.5,1.17.5,1.17l-.23.87-.51.19-.14.69-.43.32-.04.56-.61.16-.46-.68-.32.54h-.56s-.2-.4-.2-.4l-.61.32-.26-.28Z"/>
      <path class="cls-2" d="m56.55,13.39l.69-.98-1.01-.24.02-.45,1.13-1.61-.8-.03-.44-1.54.94-1.34-.62-.2v-1.11s.62-.28.62-.28l.51-.81-.94.34-.04-1.03.66-.94.06-.66.91-1.3.25.65.42.06,1.17-1.59.22.68,1.28-.74.33.58.81-.61.59.41s.78-.69.87-.57.63.44.63.44l.6-.52.63.44.81.27.37.73-.11.74.91.05-.61.87.68.54-2.12,3.03-1.6-1.24.45-.8-.74-.46-.11-.43-.46.15-.59-.41-.4.48-.52.11-.48-.45-.62.97v.59s.78.31.78.31l-.91,1.71.83.23-.95,1.86.87.26-.8,1.31-.02.45.5.29.73-.96.46.68.44-.22,1.85-2.64,1.08.46.44.72.04,1.2.49.05-1.98,2.83-.7-.08-.27-.54-.89,1.43-.58.24-.39-.45-.56,1.13-.83.35-.5-.29-.63.32-.54-.15-.46.32-.55-.39.21-.79-.64.08-.39-.45.17-.41-.67-.3.04-.39Z"/>
      <path class="cls-2" d="m117.76,42.91l1.82-3.25-1.02-.42.83-1.74-.9-.36.48-.91s-.93-.38-.86-.44c.08-.07.38-.93.38-.93l-.84-.4.41-1.06-.53-.3-.63.34.1-.64-.69-.09-.33.59-.48-.66-.7.33-.44,1.3-.63-.58-.46-.04-1.37,2.44-.4-.59-.58.04-1.18,2.1-.33-.59-.76.31-1,1.06-.27.81-.7-.39-.9,1.6.79-.03-.93,1.91.84.47-.32.78.9.5-.44,1.04.78.44-.1.9.53.11-.03.57.95.09.48.71.13-.22.57.62.33-.59,1.05.37,1.05-1.88.62-.06.51.21,1.04-1.85.39-.11.51.54,1.13-2.02s.65-.44.72-.37.47.34.47.34Zm-2.27-2.21c-.06.11-.4-.84-.4-.84l-.79.26-1.23,2.18-.03-.75s-.6-.08-.69-.13-1.2,2.59-1.2,2.59l-.75-.62-.17.3-.43-.24.09-.51-.64-.36,1.24-1.81.52-.13.38.63,1.15-2.05.72-.22.41.51,1.12-1.99.88-.32.16.71.69-.23.23.75-1.27,2.27Z"/>
      <path class="cls-2" d="m39.05,14.88c-.1.02-.33-.79-.33-.79l.38-2.49-.74.14-.24-.36.35-2.29-.53-.15-.45-.46.35-2.32-1.05-.37.11-.73-.84.16.04-.28-.83.3-.79-.55-.34.52-.48-.25-.49.85-.89-.14-.31,1.19-1.02-.15-.23.89-.95-.14-.47,2.27-.6-.55-.3,1.97.79.12-.3.88.12,1.58.4.77.63-.29-.39,2.6.42.42.69-.25-.46,3.01.38.27.86-.08-.47,1.42.34.74.79-.25-.11.73.59.37.32-.62.28.72.6.09.34-1.19.91.21s.31-.95.29-1.05c-.02-.11.95.18.95.18l.2-1.1.93.28.44-2.06,1.06.3.61-4.02s-.48-.04-.58-.02Zm-3,3.24l-.65.5-.4-.66-.57.51-.49-.86.37-2.46-.64.17-.42-.66.39-2.54-.69.3-.33-.46.16-2.38.73.11.25-.5.49.07-.06.37.97-.04s-.78,3.02-.68,3.04.62.34.62.34l.49-.63-.41,2.7.46.75s.86-.6.84-.47l-.43,2.8Z"/>
      <path class="cls-2" d="m25.55,30.4c-.07.02-.84.04-.86.15s.14.91.02.92-.62.03-.62.03l-.19.21-.67.1-.33.6-.56-.21-.41.49-.97-3.33s-.45-.5-.51-.45-.69.73-.69.73l-.19-1.35-.55-1.64s-.43-.53-.57-.41-.36.58-.38.49l-1.04-3.56-.38-.09-.28-.35-.42.27s.4.78.24.83-.93.35-.93.35v.65s-.67.23-.67.23l.04.92-.75.09-.37-1.27-.59-.13-.36.33-.58-2.69.92.16-.19-1.17.84.05.31-.39.52.05-.11-.9.74-.22.02-1.06.64.21.31-.49.63.09-.08-.7.23-.57.48.11.36,1.58s.95-.43.99-.31,1.09,3.92,1.09,3.92l.91-.4.8,2.99.65-.26.89.97.35,1.03.49-.19.33.78.82,1.87.63.97Z"/>
      <path class="cls-2" d="m14.81,20.43s.18-1.18.26-1.16.5.35.56.26.36-.9.36-.9l.51-.02.3-.96.58.12.45-.76.51-.02-.04-.89,1.09-.05-.03-.8.74-.03.25-.84.64.26.04,1.03s.37.71.48.6.49-.5.5-.41-.03,2.58-.03,2.58l-.98-.16.05,1.23-1.73-.27-.15,1.12-.68-.17-.12.78s-.26.56-.35.5-.6-.69-.6-.69l-.35.56-.53-.32.03.74-.49.65-.48-.41.03-1.26-.83-.05v-.26Z"/>
      <path class="cls-2" d="m97.24,30.98c.07.02.87.1.88.2s-.25.84-.12.86.64.07.64.07l.18.21.69.13.28.58.61-.16.37.49,1.37-3.04s.52-.43.58-.39.64.73.64.73l.35-1.24.76-1.49s.5-.46.64-.34.31.57.35.48l1.47-3.25.4-.06.33-.3.41.28s-.51.7-.34.76.93.38.93.38l-.08.6.69.26-.14.85.77.14.52-1.16.63-.08.33.33.9-2.47-.98.08.33-1.08h-.88s-.28-.39-.28-.39h-.54s.21-.82.21-.82l-.75-.25.1-.99-.69.16-.27-.48-.67.04.16-.65-.18-.55-.52.07-.54,1.44s-.95-.46-.99-.36-1.56,3.58-1.56,3.58l-.91-.43-1.15,2.73-.65-.29-1.03.85-.48.93-.49-.21-.43.71-1.06,1.69-.76.86Z"/>
      <path class="cls-2" d="m109.5,22.41s-.06-1.11-.15-1.1-.56.29-.61.21-.28-.87-.28-.87l-.53-.06-.21-.91-.61.07-.39-.74-.53-.06.14-.82-1.13-.12.12-.74-.77-.08-.17-.8-.7.2-.16.96s-.47.64-.57.53-.46-.5-.47-.42-.25,2.41-.25,2.41l1.04-.08-.19,1.14,1.83-.13.04,1.06.73-.11.04.73s.21.54.31.49.7-.6.7-.6l.3.54.59-.26-.11.69.44.64.54-.35.1-1.18h.87s.04-.23.04-.23Z"/>
      <path class="cls-2" d="m76.49,5.53c-.02-.19.16-1.21.16-1.21,0,0,.13-1.13.06-1.19-.07-.06-.7.13-.7.13l.04-.77s-.44.06-.43-.02-.42-.36-.42-.36l-.8.17-.34-.44.22-.76-.55.3-.4-.18-.39.15-.37-.35s-.37.22-.48.3c-.11.07-.37-.34-.37-.34l-.35.3-.5-.34-.48.3-.57-.35-.35.3-.75-.35.28.52-.28.52s.18.59.25.65c.07.06-.06.82-.06.82l.85-.12-.26,3.25h-.62s-.29,6.51-.29,6.51l-.36.46-.67-.38-.11,2.33.35.82.7-.1-.03.56.37.31.54-.11.51.16.26-.17.55.21.13-.47.19-1.82v-1.33s.04-.61.04-.61l.14-1.85v-.61s.5.42.5.42l.42-.3.39.34.4-.3.52-.24.41.02.66-.39.49.02.63-.39.38.02.31-.54.23-1.93s-.05-1.36-.06-1.54Zm-2.48,2.76l-.37.57-.45-.8-.24.77-.24.24-.43-.55-.03-2.57.41.12s.28-.41.34-.39c.06.02.45.37.53.36.08-.02.57-.4.6-.3.03.1-.12,2.57-.12,2.57Z"/>
      <path class="cls-2" d="m102.27,35.68l1.46-1.95.43.61,1.86-2.17s.14.96.27.79.5-.22.5-.22l1.9-2.52.2.51.71-.14,1.34-1.78.1.61s.22.24.27.18.41-.21.41-.21l1.52-2.03v.67s.36.14.36.14l1-1.34.17.49.84.04-.12.32-.55.33.22.76.48-.13.05.34-.59.62.33.4.45-.13-1.59,2.11-.39.02-.45-.44-1.04,1.41s-.5-1.05-.52-.93-1.69,2.29-1.69,2.29c0,0-.46-.84-.49-.73s-1.63,2-1.63,2l-.59-.7-1.96,2.84-.38-.47-.04-.49-1.32,1.62-.53-.11.08-.64-.63.09-.23-.84.55-.77-.8-.06.05-.4Z"/>
      <path class="cls-2" d="m95.53,22.28l-.95-.32.18-.25-1.08-.45s.35-.18.27-.21-.15-.17-.15-.17l-1.23-.42.17-.15-.15-.26-.87-.3.23-.12s.07-.12.03-.13-.13-.14-.13-.14l-.99-.34.26-.09v-.16s-.64-.22-.64-.22l.17-.13-.09-.34h.14s.2.18.2.18l.27-.18-.11-.17.13-.06.32.15.11-.18-.11-.16,1.03.35.06.15-.11.24.68.23s-.34.34-.3.33,1.11.37,1.11.37c0,0-.27.29-.22.29s.99.38.99.38l-.2.32,1.36.4-.13.21-.19.08.8.31.02.22-.26.05.12.24-.3.2-.37-.12.08.32-.16.03Z"/>
      <path class="cls-2" d="m86.2,21.01l1.3-2.23.49.57,1.68-2.52s.23.98.34.79.48-.3.48-.3l1.69-2.89.25.5.71-.24,1.19-2.04.15.63s.25.22.29.15.4-.27.4-.27l1.36-2.33.06.7.37.09.9-1.53.21.48.85-.08-.09.35-.53.42.29.76.47-.2.08.35-.54.72.37.37.44-.2-1.41,2.42-.39.07-.5-.4-.92,1.62s-.6-1.02-.6-.89-1.51,2.62-1.51,2.62c0,0-.54-.81-.56-.69s-1.47,2.31-1.47,2.31l-.66-.65-1.72,3.23-.43-.43-.08-.51-1.19,1.87-.54-.04.02-.68-.63.19-.31-.84.49-.88-.81.06v-.43Z"/>
      <path class="cls-2" d="m93.74,28.33l-.39-2.35.73.11-.28-2.78s.78.55.75.36.18-.5.18-.5l-.51-3.05.5.21.39-.59-.36-2.15.51.35s.33.01.31-.07.13-.43.13-.43l-.41-2.45.48.46.34-.15-.27-1.62.46.22.6-.56.15.3-.14.62.69.36.24-.42.28.2.04.83.52.04.22-.4.42,2.55-.26.29h-.63s.3,1.71.3,1.71c0,0-1.1-.36-1.02-.27s.48,2.75.48,2.75c0,0-.92-.25-.86-.15s.31,2.51.31,2.51l-.91-.07.69,3.31-.6-.05-.38-.31.25,2.03-.44.29-.41-.49-.36.51-.76-.42-.17-.91-.59.52-.25-.31Z"/>
      <path class="cls-2" d="m10.81,42.13l-.06,1.07-.28-.12-.15,1.25s-.26-.32-.27-.23-.12.2-.12.2l-.08,1.39-.18-.14-.21.22-.06.98-.17-.2s-.13-.04-.13,0-.09.18-.09.18l-.07,1.12-.15-.25-.15.03-.04.73-.16-.14-.29.19-.03-.15.11-.26-.24-.23-.13.16-.09-.12.06-.37-.2-.07-.12.15.07-1.16.13-.1.25.05.04-.77s.4.27.38.22.07-1.25.07-1.25c0,0,.34.2.33.15s.11-1.13.11-1.13l.35.12.03-1.52.23.08.12.17.09-.91.2-.09.12.25.19-.19.26.26-.02.42.28-.17.07.16Z"/>
      <path class="cls-2" d="m10.33,54.92l-2.2-1.59.63-.5-2.46-2.03s1.03-.19.84-.32-.27-.55-.27-.55l-2.85-2.07.54-.24-.19-.8-2.01-1.46.66-.13s.25-.26.18-.31-.25-.46-.25-.46l-2.29-1.66.73-.02.13-.4-1.51-1.09.52-.2v-.94s.35.12.35.12l.39.61.81-.27-.17-.54.37-.06.7.65.42-.38-.16-.5,2.39,1.73.04.44-.45.52,1.6,1.13s-1.11.6-.98.61,2.58,1.84,2.58,1.84c0,0-.88.54-.76.57s2.27,1.78,2.27,1.78l-.72.68,3.2,2.12-.48.45-.53.05,1.83,1.44-.09.6-.7-.07.14.71-.9.28-.87-.6v.9s-.45-.04-.45-.04Z"/>
      <path class="cls-2" d="m13.62,46.49l-2.36-.16.34-.72-2.72-.38s.78-.67.58-.68-.41-.31-.41-.31l-3.05-.21.36-.46-.44-.54-2.15-.15.5-.43s.12-.33.04-.34-.36-.24-.36-.24l-2.45-.17.59-.38-.04-.39-1.62-.11.35-.42-.34-.75.34-.08.54.29.57-.62-.33-.34.28-.24.8.16.21-.52-.31-.32,2.55.18.19.33-.19.65,1.7.1s-.69,1.04-.58.98,2.76.17,2.76.17c0,0-.53.88-.42.84s2.48.28,2.48.28l-.35.91,3.36.08-.24.6-.41.31,2,.22.14.52-.59.3.36.49-.64.68-.92-.04.31.72-.37.19Z"/>
      <path class="cls-2" d="m75.24,18.48l-1.1-.73.48-.49-1.19-1s.67-.34.58-.4-.08-.35-.08-.35l-1.42-.95.38-.28v-.55s-.99-.67-.99-.67l.43-.22s.2-.24.16-.26-.08-.28-.08-.28l-1.15-.76.46-.16.15-.32-.75-.5.35-.25.15-.69.2.02.14.37.54-.35-.02-.36.24-.12.33.33.32-.36-.02-.34,1.19.79-.05.31-.37.47.8.51s-.79.66-.71.64,1.3.84,1.3.84c0,0-.64.57-.57.57s1.11.85,1.11.85l-.56.64,1.63.92-.37.42-.34.15.9.69-.15.45-.42.09-.03.49-.6.38-.44-.27-.16.66-.26.06Z"/>
      <path class="cls-1" d="m109.28,51.77l2.36-2.68.29.89,1.59-1.8.45.67,1.88-1.66.34.66,1.72-1.6.9.28,1.77-2.01.94.33.22.32.61.17.27.44.57.05.25.67-3.84,4.58.1.71.77.04s1.93-2.63,2.03-2.57.56.36.56.36l.53-.34.46.39.48.06-.13.8.59.47-1.03,1.17.99.27.41.71-.92,1.22-1.01.28-.05-.9s-1.09,1.42-1.19,1.39-.92-.39-.92-.39l-1.4,1.54-.79-.37-1.3,1.47-.84-.31-1.48,1.46-.84-.31-1.41,1.6-.69-.13-.04-.39-.67-.02-.08-.7-.52.16-.2-.55.53-.43-.84-.18s.02-.55.05-.62,1.64-1.86,1.64-1.86c0,0,.03.58.14.58s.66-.01.66-.01l2.79-3.12-.95-.4-1.95,2.21-.71-.32-.76.86-.69-.13-.09-.46-.65.21-.41-.71,1.23-1.18-.75.03-.2-.52-.49.21-.28-.6Z"/>
      <path class="cls-2" d="m79.27,4.47l.71,1.13-.24.52-.39.16-.3-.2.62,2.03-.24.79-.58-.18.55,1.34-.33.75-.69-.04.98,1.93-.52.88-.41-.2s.48,1.35.42,1.4-.23.54-.23.54l-.62.26.36.88-.21.65-.7.14.52,1.58.48.19.63-.5.3.91,1.01-.42.37.9,1.25-.37.32.78.9-.55.44,1.12,1.67.34,1.59-2.47-.34-.82-1.97-.61-.42-.81-.79.57-.39-.68-.89.44-.2-.43s-.39.23-.39.16-.14-.53-.08-.58.25-.18.25-.18l.28.28s.42-.54.39-.63l-.29-.71.42-.1.21.45.65-.59s.31,1,.41.99.69-.28.69-.28l.68.68.68.16-.2-.48.41-.17.56.38,1.13-3.25-.94-.13-1.02-.59-.39-.68-.69.36-.51-.97-.77.54-1.02-1.62.78-.27.57-.11.54.71h.38s.29.46.29.46l.39-.23.29.57.48-.15.28-.36.42.89.92-.38s.45,1.03.54.99.6-.17.6-.17l.9-3.03-.51-1.24-.98.7-.65-.74-.74.3-.89-1.5-.69.28-.79-1-.99.46-.71-1.65-.92.63-.52-1.06s-1.09.1-1.15.15-.97.72-.97.72Z"/>
      <path class="cls-2" d="m37.71,3.93l1.05.85.18.77-.76.06,1.82,1.48.1.68-.59.32s1.19.79,1.16.94.14.85.14.85l-.67.35,1.84,1.49.14.56-.51.41,1.18,1.1s.06.43-.01.52-.56.47-.56.47l.95.62.05.78-.46.57,1.27,1.03.64.02.46-.7s.91.62.96.57.73-.96.73-.96l-.88-.87.34-.6-.66-.76.37-.53-.42-.32.2-.31.38.07.08-.65-.59-.51.26-.32.35.08.31-.9.9,1,.69-.63.59.48.74-.08-.26-.66.78-.08.28-.42-.8-2.99-.94.24-1.19-.17-.65-.44-.29.54-1.23-.56-.42.84-1.54-.87.31-.46s.24-.66.32-.65.63.39.63.39l.55-.2.54.32.39-.51.61.64.33-.92.89.72.63-.85.87.71.49-.31-.84-3.08-1.07-1.02-.41.97-1.21-.33-.48.74-1.31-1.12-.57.6-1.07-.43-.5.54-.78.16-1.04-.94-.45.73-.85-.66-1.04.52-.41,1.06Z"/>
    </g>
  </g>
</svg>