<?xml version="1.0" encoding="UTF-8"?>
<svg id="Layer_2" data-name="Layer 2" xmlns="http://www.w3.org/2000/svg" viewBox="0 0 35.9 31.09">
  <defs>
    <style>
      .cls-1 {
        fill: #fff;
        stroke: #231f20;
      }

      .cls-1, .cls-2 {
        stroke-miterlimit: 10;
      }

      .cls-2 {
        stroke: #fff;
        stroke-width: .5px;
      }

      .cls-3 {
        fill: #231f20;
        stroke-width: 0px;
      }
    </style>
  </defs>
  <g id="Layer_1-2" data-name="Layer 1">
    <polygon class="cls-1" points=".87 30.59 35.03 30.59 17.95 1 .87 30.59"/>
    <polygon class="cls-2" points="16.85 19.91 11.87 16.42 18.03 12.86 23.31 16.18 16.85 19.91"/>
    <polygon class="cls-2" points="16.73 28.2 11.81 24.07 10.71 17.77 15.99 21.66 16.73 28.2"/>
    <polygon class="cls-2" points="18.24 28.63 24.79 24.54 24.79 17.77 17.59 21.76 18.24 28.63"/>
    <path class="cls-3" d="m25.97,15.96l-7.57-4.74-8.95,5.17,1.38,8.34,6.67,5.28,8.86-5.12-.38-8.94Zm-7.57-4.1l6.82,4.23-8.48,4.87-6.39-4.5,8.06-4.6Zm-7.09,12.58l-1.13-7.49,6.3,4.42.75,7.8-5.92-4.73Zm6.47,4.73l-.68-7.74,8.37-4.83.29,8.01-7.97,4.56Z"/>
  </g>
</svg>