<?xml version="1.0" encoding="UTF-8"?>
<svg id="Layer_2" data-name="Layer 2" xmlns="http://www.w3.org/2000/svg" viewBox="0 0 192.41 19.3">
  <defs>
    <style>
      .cls-1 {
        fill: #fff;
        stroke-width: 0px;
      }
    </style>
  </defs>
  <g id="Layer_1-2" data-name="Layer 1">
    <g>
      <path class="cls-1" d="m16.69,15.43l1.12-1.04-1.05-.36.18-.51,1.83-1.71-.89-.11.04-1.78,1.52-1.42-.63-.29.4-1.25.78-.26.86-.87-1.18.29.31-1.16,1.07-1,.29-.74,1.48-1.38.06.75.46.11,1.87-1.67v.79s1.72-.71,1.72-.71l.16.69,1.12-.61.52.52s1.11-.7,1.17-.55.56.56.56.56l.85-.53.55.56.81.38.16.86-.38.83,1,.14-.98.92.58.67-3.44,3.21-1.37-1.55.78-.86-.67-.59.03-.49-.57.12-.52-.52-.62.51-.62.07-.38-.55-1.04,1.04-.2.66.77.43-1.62,1.84.86.34-1.71,2,.89.38-1.36,1.4-.18.51.46.38,1.15-1.01.29.81.58-.2,3-2.79,1.05.63.24.85-.37,1.36.54.11-3.22,3-.76-.16-.11-.63-1.5,1.53-.73.21-.28-.54-1.02,1.22-1.06.32-.46-.38-.82.3-.56-.22-.63.32-.48-.49.51-.88-.75.03-.28-.54.33-.45-.65-.4.17-.43Z"/>
      <path class="cls-1" d="m88.52,15.53l1.12-1.04-1.05-.36.18-.51,1.83-1.71-.89-.11.04-1.78,1.52-1.42-.63-.29.4-1.25.78-.26.86-.87-1.18.29.31-1.16,1.07-1,.29-.74,1.48-1.38.06.75.46.11,1.87-1.67v.79s1.72-.71,1.72-.71l.16.69,1.12-.61.52.52s1.11-.7,1.17-.55.56.56.56.56l.85-.53.55.56.81.38.16.86-.38.83,1,.14-.98.92.58.67-3.44,3.21-1.37-1.55.78-.86-.67-.59.03-.49-.57.12-.52-.52-.62.51-.62.07-.38-.55-1.04,1.04-.2.66.77.43-1.62,1.84.86.34-1.71,2,.89.38-1.36,1.4-.18.51.46.38,1.15-1.01.29.81.58-.2,3-2.79,1.05.63.24.85-.37,1.36.54.11-3.22,3-.76-.16-.11-.63-1.5,1.53-.73.21-.28-.54-1.02,1.22-1.06.32-.46-.38-.82.3-.56-.22-.63.32-.48-.49.51-.88-.75.03-.28-.54.33-.45-.65-.4.17-.43Z"/>
      <path class="cls-1" d="m177.87,6.79l-.6-3.25-1.31.85-.47-1.59-1.15.76-.2-.88s-1.19.78-1.17.68c.02-.11-.32-.78-.32-.78l-1.12.69-.38-.87-.74.41-.37.79-.37-.38-.74.66.11.59-.95.2-.45.85.53,1-1.05.4-.48.45.45,2.44-.83.15-.53.61.39,2.1-.76.08-.52.91-.2,1.47.33.62-.98.54.29,1.6.75-.82.5,1.76,1.17-.65.25.66,1.25-.69.34.89,1.09-.61.56.49.6-.49.39.27.99-.92,1-.18-.04-.22,1.02-.32-.11-.59,1.3-.91-.35-1.88.57-.66.65-.42-.34-1.85.3-.45.89-.28-.37-2.02s.32-.86.44-.89.71-.33.71-.33Zm-3.85,1.36c.02.11-1.01.04-1.01.04l-.59.92.4,2.18-.58-.29s-.65.57-.77.64.73,2.33.73,2.33l-1.19.5.06.3-.6.33-.29-.31-.89.5-.11-2.04.42-.59.83-.11-.38-2.06.54-.82.78-.2-.37-1.99.63-1.04.68.14.51-.8.77.09.42,2.27Z"/>
      <path class="cls-1" d="m53.84,15.58l1.22,3.21,1.47-1.04.81,1.55,1.29-.93.38.86s1.33-.96,1.32-.85c-.01.11.5.75.5.75l1.27-.85.59.83.84-.52.33-.85.51.33.8-.77-.22-.58,1.13-.34.42-.92-.8-.94,1.22-.55.51-.52-.91-2.41.99-.27.56-.69-.79-2.08.91-.19.5-.99.03-1.52-.49-.58,1.11-.68-.6-1.58-.8.93-.87-1.72-1.33.82-.41-.64-1.42.88-.54-.86-1.24.77-.76-.42-.66.58-.52-.22-1.07,1.07-1.19.33.08.22-1.19.46.22.58-1.45,1.1.7,1.85-.59.74-.73.52.69,1.83-.31.5-1.05.41.76,1.99s-.26.91-.4.96-.82.44-.82.44Zm4.49-1.91c-.04-.11,1.23-.18,1.23-.18l.58-1.01-.82-2.16.75.22s.71-.67.84-.76-1.24-2.26-1.24-2.26l1.38-.67-.11-.3.68-.42.4.28,1.02-.63.44,2.05-.42.65-1,.23.77,2.03-.54.91-.92.31.75,1.97-.62,1.14-.85-.05-.5.88-.96.02s-.81-2.14-.85-2.24Z"/>
      <path class="cls-1" d="m146.29,18.88c.08-.03.92-.56.97-.48s.15.87.29.8.68-.41.68-.41l.27.04.76-.4.55.27.54-.58.6.13-.06-3.51s.31-.74.4-.75.98.13.98.13l-.24-1.28.05-1.79s.29-.75.48-.75.58.24.58.14-.06-3.76-.06-3.76l.38-.34.18-.49.54-.07s-.17.95.01.88,1.11-.36,1.11-.36l.2.56.81-.3.26.81.84-.45-.02-1.34.59-.53.49.03-.26-2.7-.94.79-.18-1.13-.89.64-.47-.11-.54.41-.18-.84-.87.34-.37-.89-.62.64-.49-.2-.65.52-.15-.65-.44-.32-.48.44.14,1.59s-1.17.31-1.17.43.12,4.1.12,4.1l-1.11.31.13,3.1-.79.24-.63,1.45-.04,1.12-.6.19-.09.9-.26,2.17-.36,1.27Z"/>
      <path class="cls-1" d="m154.54,2.75s-.58-.85-.67-.77-.42.64-.51.61-.69-.49-.69-.49l-.56.34-.64-.58-.58.5-.74-.31-.56.34-.25-.76-1.18.72-.23-.69-.81.49-.55-.52-.6.66.29.88s-.17.85-.32.84-.69-.07-.67,0,.88,2.11.88,2.11l1-.82.35,1.05,1.77-1.43.53.82.67-.62.39.56s.46.28.54.17.42-.99.42-.99l.56.22.46-.64.21.64.74.2.38-.67-.45-1.02.88-.62-.07-.22Z"/>
      <path class="cls-1" d="m35.55,18.73c.09-.04.97-.61,1.03-.54s.21.88.35.79.71-.45.71-.45l.3.03.8-.44.61.25.55-.61.66.1-.25-3.56s.3-.76.39-.78,1.07.08,1.07.08l-.33-1.29-.04-1.82s.27-.78.48-.79.64.21.63.11l-.26-3.81.39-.37.17-.51.59-.1s-.14.97.06.89,1.19-.43,1.19-.43l.25.56.87-.34.32.8.89-.5-.09-1.36.61-.57h.53s-.43-2.72-.43-2.72l-.98.85-.26-1.14-.93.7-.51-.09-.56.44-.24-.84-.92.39-.45-.88-.64.68-.55-.18-.67.56-.19-.66-.5-.3-.5.47.23,1.61s-1.25.38-1.24.5.35,4.15.35,4.15l-1.19.37.31,3.13-.84.28-.61,1.5.02,1.14-.64.22-.06.91-.17,2.21-.32,1.31Z"/>
      <path class="cls-1" d="m43.65,2.01s-.68-.86-.77-.77-.43.68-.52.65-.77-.48-.77-.48l-.59.38-.73-.57-.61.55-.82-.29-.59.38-.31-.78-1.25.8-.28-.7-.85.55-.62-.52-.62.71.37.9s-.14.89-.3.88-.76-.04-.73.04,1.08,2.15,1.08,2.15l1.04-.89.44,1.08,1.85-1.57.63.83.7-.67.45.56s.52.27.6.15.4-1.05.4-1.05l.62.2.47-.68.26.65.81.17.37-.71-.54-1.04.92-.69-.09-.23Z"/>
      <path class="cls-1" d="m156.69,18.9l-.45-2.05,1.04-.33-.27-2.53s1.1.07,1.06-.11.28-.59.28-.59l-.58-2.66.71-.1.59-.81-.41-1.88.71.04s.47-.19.45-.26.21-.5.21-.5l-.47-2.14.67.15.5-.35-.31-1.41.65-.07.88-.91.2.2-.23.68.97-.06.36-.55.39.03v.79s.75-.27.75-.27l.33-.52.49,2.23-.38.43-.9.39.35,1.46s-1.56.31-1.45.35.56,2.39.56,2.39c0,0-1.3.31-1.22.37s.33,2.25.33,2.25l-1.3.48.84,2.8-.86.31-.53-.07.27,1.82-.64.55-.56-.23-.54.71-1.07.05-.2-.79-.86.86-.35-.15Z"/>
      <path class="cls-1" d="m139.5,14.01l-1.16.31.06-.31-1.36.3s.28-.36.18-.33-.24-.04-.24-.04l-1.5.41.11-.22-.29-.12-1.06.29.18-.23s0-.14-.03-.12-.21-.03-.21-.03l-1.2.33.23-.23-.07-.13-.79.22.11-.2-.27-.21.15-.08.3.02.18-.31-.21-.07.1-.13.41-.07.03-.22-.19-.06,1.25-.34.14.09v.26s.83-.23.83-.23c0,0-.19.48-.14.44s1.35-.38,1.35-.38c0,0-.13.39-.08.36s1.23-.29,1.23-.29l-.04.38,1.63-.5-.03.25-.16.18.99-.24.14.16-.24.2.24.12-.21.34-.45.13.25.21-.15.13Z"/>
      <path class="cls-1" d="m127.73,17.65l.99-2.57.75.16,1.37-3.02s.55.64.63.42.51-.53.51-.53l1.28-3.33.44.25.8-.62.9-2.35.36.41s.36.03.4-.06.41-.46.41-.46l1.03-2.68.27.52.48-.15.68-1.76.39.26,1.01-.58v.34s-.55.66-.55.66l.56.43.52-.45.19.23-.46.9.55.07.49-.42-1.07,2.78-.46.3-.72-.02-.69,1.85s-1.02-.45-.98-.35-1.13,3-1.13,3c0,0-.88-.31-.87-.21s-1.17,2.73-1.17,2.73l-.98-.12-1.23,3.62-.64-.09-.24-.35-.94,2.21-.67.29-.16-.55-.72.53-.6-.49.36-1-.97.53-.1-.35Z"/>
      <path class="cls-1" d="m138.97,18.91l-1.12-1.64.93-.35-1.1-2.05s1.11-.03,1.02-.17.09-.51.09-.51l-1.45-2.12.67-.14.32-.71-1.03-1.5.72-.03s.4-.19.37-.25.04-.42.04-.42l-1.17-1.71.72.07.38-.33-.77-1.12.63-.11.58-.81.27.15v.58s.94-.13.94-.13l.17-.48h.4s.27.63.27.63l.64-.28.16-.45,1.22,1.78-.24.38-.77.39.83,1.17s-1.45.38-1.33.4,1.34,1.9,1.34,1.9c0,0-1.19.36-1.1.4s1.07,1.81,1.07,1.81l-1.13.5,1.75,2.22-.75.32-.55-.02.87,1.46-.46.5-.63-.14-.31.62-1.05.13-.46-.62-.58.77-.4-.09Z"/>
      <path class="cls-1" d="m13.23,12.99l-1.03.3v-.37s-1.23.26-1.23.26c0,0,.2-.42.11-.39s-.24-.07-.24-.07l-1.34.38.06-.26-.29-.17-.94.27.12-.27s-.02-.16-.05-.15-.2-.05-.2-.05l-1.07.31.17-.26-.09-.16-.71.2.07-.24-.29-.27.13-.09.29.04.12-.36-.21-.1.07-.15.37-.05v-.26s-.21-.09-.21-.09l1.12-.32.14.12.05.31.74-.22s-.09.56-.06.52,1.2-.36,1.2-.36c0,0-.05.47-.01.44s1.11-.26,1.11-.26l.03.46,1.44-.49.02.3-.11.2.89-.21.16.21-.19.22.25.16-.14.4-.4.13.27.27-.12.14Z"/>
      <path class="cls-1" d="m0,17.44l.76-2.72.72.21,1.09-3.19s.56.71.62.48.44-.55.44-.55l.99-3.52.43.29.71-.63.7-2.49.36.45s.34.05.37-.05.36-.47.36-.47l.79-2.83.28.57.44-.14.52-1.86.38.29.92-.58v.36s-.45.68-.45.68l.55.49.46-.46.19.26-.38.95.53.1.43-.43-.83,2.95-.42.3-.68-.05-.53,1.95s-.99-.53-.95-.42-.87,3.17-.87,3.17c0,0-.85-.38-.84-.27s-.92,2.88-.92,2.88l-.93-.17-.92,3.83-.61-.12-.25-.39-.74,2.33-.61.29-.19-.6-.64.54-.6-.55.27-1.06-.88.53-.12-.38Z"/>
      <path class="cls-1" d="m10.51,18.39l-.87-2.62.84-.09-.82-3.14s.98.41.91.19.11-.63.11-.63l-1.13-3.39.6.09.33-.8-.8-2.39.63.26s.37-.09.34-.17.07-.54.07-.54l-.91-2.73.63.39.35-.28-.6-1.79.56.11.57-.83.23.31-.05.76.84.21.19-.56.35.15.19.96.59-.11.17-.53.95,2.84-.24.41-.7.21.65,1.87s-1.3-.09-1.2,0,1.04,3.05,1.04,3.05c0,0-1.08-.01-1,.08s.81,2.82.81,2.82l-1.03.2,1.39,3.63-.68.12-.48-.25.66,2.28-.44.47-.55-.45-.32.7-.93-.25-.36-1.01-.56.78-.34-.28Z"/>
      <path class="cls-1" d="m116.33,6.26c0-.19.43-1.27.43-1.27,0,0,.38-1.19.29-1.24-.09-.05-.99.2-.99.2l.18-.8s-.62.1-.6.02-.51-.34-.51-.34l-1.14.26-.39-.42.43-.81-.82.37-.52-.15-.57.19-.45-.32s-.55.26-.71.35c-.16.09-.45-.31-.45-.31l-.53.35-.63-.3-.71.35-.73-.3-.53.35-.98-.29.3.51-.48.56s.14.59.23.65c.09.05-.23.85-.23.85l1.2-.21-.92,3.38-.85.06-1.52,6.76-.57.51-.87-.32-.56,2.42.34.81.98-.18-.13.58.46.28.77-.16.67.11.4-.2.73.17.25-.5.58-1.9.21-1.37.18-.63.51-1.93.11-.63.61.39.64-.35.49.31.6-.35.77-.3.56-.02.98-.47.67-.02.94-.47.53-.02.52-.59.65-2.01s.17-1.4.18-1.59Zm-3.91,3.09l-.6.62-.48-.78-.47.82-.37.27-.49-.52.41-2.66.54.08s.46-.46.54-.44c.07.02.56.34.67.32.11-.02.85-.47.88-.37.03.1-.61,2.66-.61,2.66Z"/>
      <path class="cls-1" d="m112.52,19.1l-1.4-.62.74-.54-1.48-.88s.98-.4.86-.46-.05-.34-.05-.34l-1.81-.8.56-.32.11-.54-1.28-.57.63-.26s.31-.26.27-.28-.06-.28-.06-.28l-1.46-.65.65-.2.25-.33-.96-.43.53-.28.32-.7h.28s.14.36.14.36l.81-.41.03-.35.35-.14.4.3.5-.39.03-.33,1.52.67-.12.32-.58.51,1.02.43s-1.19.73-1.08.7,1.65.71,1.65.71c0,0-.97.63-.88.62s1.39.74,1.39.74l-.88.69,2.1.76-.59.46-.49.18,1.13.6-.29.47-.6.13-.12.49-.9.44-.56-.22-.32.67-.37.08Z"/>
      <path class="cls-1" d="m178.19,17.9l-.48-3.34,1.01.12-.32-2.25.94-.12.03-2.46.84-.02-.05-2.28.96-.71-.36-2.5,1.03-.72.45-.07.64-.49.59-.06.49-.5.79.06.97,5.53.7.22.64-.68s-.77-2.92-.64-2.99.76-.36.76-.36l.12-.64.71-.25.43-.41.6.46.87-.34.21,1.45,1.02-.79.94-.07.34,1.38-.55,1.06-.83-.35s.37,1.62.28,1.7-1.07.68-1.07.68l.25,1.96-.94.56.26,1.84-.93.64.11,2-.93.64.29,1.99-.66.58-.37-.14-.55.61-.67-.23-.27.55-.64-.05.04-.68-.82.69s-.46-.26-.5-.32-.33-2.32-.33-2.32c0,0,.53.22.62.12s.51-.62.51-.62l-.53-3.92-1.1.7.4,2.76-.84.51.15,1.07-.66.58-.48-.11-.32.69-.94.07-.06-1.64-.57.7-.61-.05-.2.54h-.74Z"/>
      <path class="cls-1" d="m119.91,3.32l.78.87-.37.64-.51.33-.36-.08.57,1.84-.39.92-.72.07.56,1.16-.51.93-.87.26,1.04,1.58-.76,1.14-.49-.04s.46,1.2.38,1.28-.36.66-.36.66l-.82.53.37.76-.34.77-.9.44.49,1.42h.59s.85-.8.85-.8l.28.82,1.33-.87.38.78,1.62-.92.32.67,1.21-.95.43.98,2.09-.36,2.28-3.25-.34-.71-2.44.21-.44-.66-1.06.93-.42-.54-1.18.84-.21-.36s-.52.41-.51.33-.12-.49-.04-.57.34-.29.34-.29l.32.17s.59-.74.56-.82l-.3-.62.54-.28.22.38.88-.89s.28.91.41.85.91-.59.91-.59l.79.41.85-.13-.2-.42.54-.35.67.16,1.79-3.86-1.18.27-1.23-.17-.42-.54-.91.66-.54-.79-1.04.89-1.12-1.25,1.01-.61.74-.36.6.51.48-.15.32.34.52-.41.3.47.62-.36.4-.5.44.75,1.21-.79s.46.88.58.8.78-.44.78-.44l1.47-3.53-.51-1.07-1.31,1.14-.75-.49-.97.63-.96-1.18-.91.59-.89-.7-1.31.9-.72-1.41-1.24,1.05-.54-.88s-1.39.57-1.47.65-1.31,1.16-1.31,1.16Z"/>
      <path class="cls-1" d="m70.07,3.4l.73,1.04-.15.84-.82-.02,1.25,1.79-.19.74-.75.28s.9.99.8,1.14-.23.93-.23.93l-.84.3.75,1.75-.58.68-.71.38.75,1.32s-.12.47-.24.56-.78.44-.78.44l.72.77-.29.84-.8,1.24,1.79-.1.82.76.72-.36s.74.43.81.38,1.17-.95,1.17-.95l-.54-1.03.61-.6-.36-.89.61-.53-.31-.39.34-.32.37.12.36-.68-.4-.62.41-.32.33.12.72-.93.51,1.18.99-.59.41.58h.81s0-.74,0-.74h.84s.48-.42.48-.42l.46-3.3-1.08.16-1.17-.32-.49-.55-.53.54-1.04-.74-.8.86-1.23-1.11.52-.46s.54-.68.62-.67.48.49.48.49l.66-.16.42.4.63-.51.35.76.74-.95.61.88,1.02-.84.6.86.65-.28.46-3.41-.67-1.21-.84,1-1.12-.49-.82.74-.88-1.35-.86.58-.93-.58-.75.53-.89.09-.68-1.13-.78.74-.6-.81-1.31.44-.89,1.09Z"/>
    </g>
  </g>
</svg>