<?xml version="1.0" encoding="utf-8"?>
<!-- Generator: Adobe Illustrator 28.0.0, SVG Export Plug-In . SVG Version: 6.00 Build 0)  -->
<svg version="1.1" id="Layer_2_00000104698864249541986570000004424521242170022813_"
	 xmlns="http://www.w3.org/2000/svg" xmlns:xlink="http://www.w3.org/1999/xlink" x="0px" y="0px" viewBox="0 0 125.4 59.8"
	 style="enable-background:new 0 0 125.4 59.8;" xml:space="preserve">
<style type="text/css">
	.st0{fill:#FFFFFF;}
</style>
<g id="Layer_1-2">
	<g>
		<path class="st0" d="M13.3,41.7L13,40.6l-0.8,0.6l-0.3-0.3l-0.5-1.9l-0.5,0.6l-1.4-0.7L9,37.2l-0.5,0.3l-0.8-0.7l0.2-0.6l-0.3-0.9
			l-0.3,0.9l-0.8-0.6l-0.3-1.1L5.7,34l-0.4-1.5l0.6,0.2l0.3-0.3l-0.5-1.9l0.6,0.3l0.2-1.5l0.6,0.1l0-1l0.7-0.2c0,0-0.1-1,0.1-1
			S8.7,27,8.7,27l0-0.8L9.4,26l0.7-0.4l0.8,0.2l0.5,0.6l0.6-0.7l0.3,1l0.8-0.2l1,3.6L12,30.6l-0.3-0.9L10.9,30l-0.4-0.2l-0.2,0.4
			l-0.6,0.2L9.9,31l-0.2,0.5L9,31.5l0.4,1.1L9.8,33l0.7-0.4l0.7,1.8l0.7-0.5l0.8,1.9l0.7-0.5l0.5,1.5l0.3,0.3l0.5-0.2l-0.3-1.2
			l0.8,0.1l0.1-0.5l-0.8-3.1l1-0.5l0.8,0.1l0.9,0.8l0.3-0.3l0.9,3.4l-0.5,0.5l-0.5-0.2l0.5,1.6l-0.2,0.6h-0.6l0.5,1.2l-0.2,0.9
			l-0.5,0.2l-0.1,0.7l-0.4,0.3l0,0.6l-0.6,0.2l-0.5-0.7l-0.3,0.5h-0.6l-0.2-0.4L13.5,42L13.3,41.7L13.3,41.7z"/>
		<path class="st0" d="M56.5,13.4l0.7-1l-1-0.2l0-0.4l1.1-1.6l-0.8,0l-0.4-1.5l0.9-1.3L56.5,7V5.9l0.6-0.3l0.5-0.8l-0.9,0.3l0-1
			l0.7-0.9l0.1-0.7l0.9-1.3l0.2,0.6l0.4,0.1l1.2-1.6L60.3,1l1.3-0.7l0.3,0.6l0.8-0.6l0.6,0.4c0,0,0.8-0.7,0.9-0.6s0.6,0.4,0.6,0.4
			L65.4,0L66,0.4l0.8,0.3l0.4,0.7l-0.1,0.7l0.9,0l-0.6,0.9l0.7,0.5l-2.1,3l-1.6-1.2l0.4-0.8l-0.7-0.5L64,3.7l-0.5,0.2l-0.6-0.4
			L62.5,4L62,4.1l-0.5-0.5l-0.6,1v0.6l0.8,0.3l-0.9,1.7l0.8,0.2l-1,1.9l0.9,0.3l-0.8,1.3l0,0.4l0.5,0.3l0.7-1l0.5,0.7l0.4-0.2
			l1.9-2.6l1.1,0.5l0.4,0.7l0,1.2l0.5,0.1l-2,2.8L64,13.6l-0.3-0.5l-0.9,1.4l-0.6,0.2l-0.4-0.4l-0.6,1.1l-0.8,0.4L60,15.5l-0.6,0.3
			l-0.5-0.1L58.4,16l-0.5-0.4l0.2-0.8l-0.6,0.1L57,14.5l0.2-0.4l-0.7-0.3L56.5,13.4L56.5,13.4z"/>
		<path class="st0" d="M117.8,42.9l1.8-3.2l-1-0.4l0.8-1.7l-0.9-0.4l0.5-0.9c0,0-0.9-0.4-0.9-0.4c0.1-0.1,0.4-0.9,0.4-0.9l-0.8-0.4
			l0.4-1.1l-0.5-0.3l-0.6,0.3l0.1-0.6l-0.7-0.1l-0.3,0.6l-0.5-0.7l-0.7,0.3l-0.4,1.3l-0.6-0.6l-0.5,0l-1.4,2.4l-0.4-0.6l-0.6,0
			l-1.2,2.1l-0.3-0.6l-0.8,0.3l-1,1.1l-0.3,0.8l-0.7-0.4l-0.9,1.6l0.8,0l-0.9,1.9l0.8,0.5l-0.3,0.8l0.9,0.5l-0.4,1l0.8,0.4l-0.1,0.9
			l0.5,0.1l0,0.6l0.9,0.1l0.5,0.7l0.1-0.2l0.6,0.6l0.3-0.6l1.1,0.4l1.1-1.9l0.6-0.1l0.5,0.2l1-1.8l0.4-0.1l0.5,0.5l1.1-2
			c0,0,0.7-0.4,0.7-0.4S117.8,42.9,117.8,42.9L117.8,42.9z M115.5,40.7c-0.1,0.1-0.4-0.8-0.4-0.8l-0.8,0.3l-1.2,2.2l0-0.8
			c0,0-0.6-0.1-0.7-0.1s-1.2,2.6-1.2,2.6l-0.8-0.6l-0.2,0.3l-0.4-0.2l0.1-0.5l-0.6-0.4l1.2-1.8l0.5-0.1l0.4,0.6l1.2-2l0.7-0.2
			l0.4,0.5l1.1-2l0.9-0.3l0.2,0.7l0.7-0.2l0.2,0.8L115.5,40.7L115.5,40.7z"/>
		<path class="st0" d="M39,14.9c-0.1,0-0.3-0.8-0.3-0.8l0.4-2.5l-0.7,0.1l-0.2-0.4l0.3-2.3l-0.5-0.1l-0.5-0.5l0.3-2.3l-1-0.4
			l0.1-0.7l-0.8,0.2l0-0.3l-0.8,0.3l-0.8-0.6l-0.3,0.5L33.7,5l-0.5,0.8l-0.9-0.1L32,6.9l-1-0.2l-0.2,0.9l-1-0.1l-0.5,2.3l-0.6-0.6
			l-0.3,2l0.8,0.1l-0.3,0.9l0.1,1.6l0.4,0.8l0.6-0.3l-0.4,2.6l0.4,0.4l0.7-0.2l-0.5,3l0.4,0.3l0.9-0.1l-0.5,1.4l0.3,0.7l0.8-0.2
			l-0.1,0.7l0.6,0.4l0.3-0.6l0.3,0.7l0.6,0.1l0.3-1.2l0.9,0.2c0,0,0.3-1,0.3-1c0-0.1,1,0.2,1,0.2l0.2-1.1l0.9,0.3l0.4-2.1L39,19
			l0.6-4C39.6,14.9,39.1,14.9,39,14.9L39,14.9z M36,18.1l-0.7,0.5L35,18l-0.6,0.5l-0.5-0.9l0.4-2.5l-0.6,0.2l-0.4-0.7l0.4-2.5
			l-0.7,0.3L32.6,12l0.2-2.4l0.7,0.1l0.2-0.5l0.5,0.1l-0.1,0.4l1,0c0,0-0.8,3-0.7,3s0.6,0.3,0.6,0.3l0.5-0.6L35.2,15l0.5,0.8
			c0,0,0.9-0.6,0.8-0.5C36.5,15.3,36,18.1,36,18.1z"/>
		<path class="st0" d="M25.5,30.4c-0.1,0-0.8,0-0.9,0.1s0.1,0.9,0,0.9s-0.6,0-0.6,0l-0.2,0.2l-0.7,0.1l-0.3,0.6l-0.6-0.2l-0.4,0.5
			l-1-3.3c0,0-0.5-0.5-0.5-0.5s-0.7,0.7-0.7,0.7l-0.2-1.4L19,26.7c0,0-0.4-0.5-0.6-0.4s-0.4,0.6-0.4,0.5l-1-3.6l-0.4-0.1l-0.3-0.4
			L15.9,23c0,0,0.4,0.8,0.2,0.8s-0.9,0.4-0.9,0.4v0.6l-0.7,0.2l0,0.9l-0.8,0.1l-0.4-1.3l-0.6-0.1L12.6,25L12,22.3l0.9,0.2l-0.2-1.2
			l0.8,0l0.3-0.4l0.5,0l-0.1-0.9l0.7-0.2l0-1.1l0.6,0.2l0.3-0.5l0.6,0.1l-0.1-0.7l0.2-0.6l0.5,0.1l0.4,1.6c0,0,1-0.4,1-0.3
			s1.1,3.9,1.1,3.9l0.9-0.4l0.8,3L22,25l0.9,1l0.4,1l0.5-0.2l0.3,0.8l0.8,1.9L25.5,30.4L25.5,30.4z"/>
		<path class="st0" d="M14.8,20.4c0,0,0.2-1.2,0.3-1.2s0.5,0.4,0.6,0.3s0.4-0.9,0.4-0.9l0.5,0l0.3-1l0.6,0.1l0.5-0.8l0.5,0l0-0.9
			l1.1,0l0-0.8l0.7,0l0.2-0.8l0.6,0.3l0,1c0,0,0.4,0.7,0.5,0.6s0.5-0.5,0.5-0.4s0,2.6,0,2.6l-1-0.2l0,1.2l-1.7-0.3l-0.1,1.1
			l-0.7-0.2L18.4,21c0,0-0.3,0.6-0.4,0.5s-0.6-0.7-0.6-0.7l-0.4,0.6L16.5,21l0,0.7l-0.5,0.6L15.6,22l0-1.3l-0.8,0L14.8,20.4
			L14.8,20.4z"/>
		<path class="st0" d="M97.2,31c0.1,0,0.9,0.1,0.9,0.2S97.9,32,98,32s0.6,0.1,0.6,0.1l0.2,0.2l0.7,0.1l0.3,0.6l0.6-0.2l0.4,0.5
			l1.4-3c0,0,0.5-0.4,0.6-0.4s0.6,0.7,0.6,0.7l0.3-1.2l0.8-1.5c0,0,0.5-0.5,0.6-0.3s0.3,0.6,0.3,0.5l1.5-3.2l0.4-0.1l0.3-0.3
			l0.4,0.3c0,0-0.5,0.7-0.3,0.8s0.9,0.4,0.9,0.4l-0.1,0.6l0.7,0.3l-0.1,0.9l0.8,0.1l0.5-1.2l0.6-0.1l0.3,0.3l0.9-2.5l-1,0.1l0.3-1.1
			h-0.9l-0.3-0.4h-0.5l0.2-0.8l-0.8-0.2l0.1-1l-0.7,0.2l-0.3-0.5l-0.7,0L108,20l-0.2-0.5l-0.5,0.1l-0.5,1.4c0,0-0.9-0.5-1-0.4
			s-1.6,3.6-1.6,3.6l-0.9-0.4l-1.2,2.7l-0.7-0.3l-1,0.9l-0.5,0.9l-0.5-0.2l-0.4,0.7L98,30.1L97.2,31L97.2,31z"/>
		<path class="st0" d="M109.5,22.4c0,0-0.1-1.1-0.2-1.1s-0.6,0.3-0.6,0.2s-0.3-0.9-0.3-0.9l-0.5-0.1l-0.2-0.9l-0.6,0.1l-0.4-0.7
			l-0.5-0.1l0.1-0.8l-1.1-0.1l0.1-0.7l-0.8-0.1l-0.2-0.8l-0.7,0.2l-0.2,1c0,0-0.5,0.6-0.6,0.5s-0.5-0.5-0.5-0.4s-0.2,2.4-0.2,2.4
			l1-0.1l-0.2,1.1l1.8-0.1l0,1.1l0.7-0.1l0,0.7c0,0,0.2,0.5,0.3,0.5s0.7-0.6,0.7-0.6l0.3,0.5l0.6-0.3l-0.1,0.7l0.4,0.6l0.5-0.4
			l0.1-1.2h0.9L109.5,22.4L109.5,22.4z"/>
		<path class="st0" d="M76.5,5.5c0-0.2,0.2-1.2,0.2-1.2s0.1-1.1,0.1-1.2S76,3.3,76,3.3l0-0.8c0,0-0.4,0.1-0.4,0s-0.4-0.4-0.4-0.4
			l-0.8,0.2l-0.3-0.4l0.2-0.8l-0.6,0.3l-0.4-0.2l-0.4,0.1L72.6,1c0,0-0.4,0.2-0.5,0.3C72,1.4,71.7,1,71.7,1l-0.3,0.3l-0.5-0.3
			l-0.5,0.3l-0.6-0.4l-0.3,0.3l-0.8-0.4L69,1.3l-0.3,0.5c0,0,0.2,0.6,0.2,0.6s-0.1,0.8-0.1,0.8l0.8-0.1l-0.3,3.2h-0.6L68.6,13
			l-0.4,0.5l-0.7-0.4l-0.1,2.3l0.3,0.8l0.7-0.1l0,0.6l0.4,0.3l0.5-0.1l0.5,0.2l0.3-0.2l0.6,0.2l0.1-0.5l0.2-1.8v-1.3l0-0.6l0.1-1.9
			v-0.6l0.5,0.4l0.4-0.3l0.4,0.3l0.4-0.3l0.5-0.2l0.4,0l0.7-0.4l0.5,0l0.6-0.4l0.4,0L76.3,9l0.2-1.9C76.5,7.1,76.5,5.7,76.5,5.5
			L76.5,5.5z M74,8.3l-0.4,0.6l-0.4-0.8l-0.2,0.8l-0.2,0.2l-0.4-0.6l0-2.6l0.4,0.1c0,0,0.3-0.4,0.3-0.4S73.4,6,73.5,6
			c0.1,0,0.6-0.4,0.6-0.3S74,8.3,74,8.3L74,8.3z"/>
		<path class="st0" d="M102.3,35.7l1.5-2l0.4,0.6l1.9-2.2c0,0,0.1,1,0.3,0.8s0.5-0.2,0.5-0.2l1.9-2.5l0.2,0.5l0.7-0.1l1.3-1.8
			l0.1,0.6c0,0,0.2,0.2,0.3,0.2s0.4-0.2,0.4-0.2l1.5-2V28l0.4,0.1l1-1.3l0.2,0.5l0.8,0l-0.1,0.3l-0.6,0.3l0.2,0.8l0.5-0.1l0.1,0.3
			l-0.6,0.6l0.3,0.4l0.4-0.1l-1.6,2.1l-0.4,0l-0.4-0.4l-1,1.4c0,0-0.5-1-0.5-0.9s-1.7,2.3-1.7,2.3s-0.5-0.8-0.5-0.7s-1.6,2-1.6,2
			l-0.6-0.7l-2,2.8l-0.4-0.5l0-0.5l-1.3,1.6l-0.5-0.1l0.1-0.6l-0.6,0.1l-0.2-0.8l0.6-0.8l-0.8-0.1L102.3,35.7L102.3,35.7z"/>
		<path class="st0" d="M95.5,22.3L94.6,22l0.2-0.2l-1.1-0.5c0,0,0.3-0.2,0.3-0.2s-0.2-0.2-0.2-0.2l-1.2-0.4l0.2-0.1l-0.2-0.3
			l-0.9-0.3l0.2-0.1c0,0,0.1-0.1,0-0.1s-0.1-0.1-0.1-0.1l-1-0.3l0.3-0.1v-0.2l-0.6-0.2l0.2-0.1l-0.1-0.3h0.1l0.2,0.2l0.3-0.2
			l-0.1-0.2l0.1-0.1l0.3,0.1l0.1-0.2l-0.1-0.2l1,0.4l0.1,0.1l-0.1,0.2l0.7,0.2c0,0-0.3,0.3-0.3,0.3s1.1,0.4,1.1,0.4
			s-0.3,0.3-0.2,0.3s1,0.4,1,0.4l-0.2,0.3l1.4,0.4l-0.1,0.2L95.6,21l0.8,0.3l0,0.2l-0.3,0l0.1,0.2L96,22l-0.4-0.1l0.1,0.3L95.5,22.3
			L95.5,22.3z"/>
		<path class="st0" d="M86.2,21l1.3-2.2l0.5,0.6l1.7-2.5c0,0,0.2,1,0.3,0.8s0.5-0.3,0.5-0.3l1.7-2.9l0.2,0.5l0.7-0.2l1.2-2l0.2,0.6
			c0,0,0.2,0.2,0.3,0.1s0.4-0.3,0.4-0.3l1.4-2.3l0.1,0.7l0.4,0.1l0.9-1.5l0.2,0.5l0.8-0.1l-0.1,0.4l-0.5,0.4l0.3,0.8l0.5-0.2
			l0.1,0.4l-0.5,0.7l0.4,0.4l0.4-0.2L98,15.5l-0.4,0.1l-0.5-0.4l-0.9,1.6c0,0-0.6-1-0.6-0.9s-1.5,2.6-1.5,2.6s-0.5-0.8-0.6-0.7
			s-1.5,2.3-1.5,2.3l-0.7-0.6l-1.7,3.2l-0.4-0.4l-0.1-0.5L88,23.6l-0.5,0l0-0.7l-0.6,0.2l-0.3-0.8l0.5-0.9l-0.8,0.1L86.2,21L86.2,21
			z"/>
		<path class="st0" d="M93.7,28.3L93.3,26l0.7,0.1l-0.3-2.8c0,0,0.8,0.5,0.8,0.4s0.2-0.5,0.2-0.5l-0.5-3l0.5,0.2l0.4-0.6l-0.4-2.1
			l0.5,0.4c0,0,0.3,0,0.3-0.1s0.1-0.4,0.1-0.4L95.3,15l0.5,0.5l0.3-0.1l-0.3-1.6l0.5,0.2l0.6-0.6l0.2,0.3l-0.1,0.6l0.7,0.4l0.2-0.4
			l0.3,0.2l0,0.8l0.5,0l0.2-0.4l0.4,2.5l-0.3,0.3h-0.6l0.3,1.7c0,0-1.1-0.4-1-0.3s0.5,2.8,0.5,2.8s-0.9-0.2-0.9-0.1s0.3,2.5,0.3,2.5
			l-0.9-0.1l0.7,3.3l-0.6,0l-0.4-0.3l0.2,2l-0.4,0.3L95.8,29l-0.4,0.5l-0.8-0.4l-0.2-0.9L94,28.7L93.7,28.3L93.7,28.3z"/>
		<path class="st0" d="M10.8,42.1l-0.1,1.1l-0.3-0.1l-0.1,1.2c0,0-0.3-0.3-0.3-0.2s-0.1,0.2-0.1,0.2l-0.1,1.4l-0.2-0.1l-0.2,0.2
			l-0.1,1l-0.2-0.2c0,0-0.1,0-0.1,0S9,46.7,9,46.7l-0.1,1.1l-0.1-0.2l-0.1,0l0,0.7l-0.2-0.1l-0.3,0.2l0-0.2L8.2,48L8,47.8l-0.1,0.2
			l-0.1-0.1l0.1-0.4l-0.2-0.1l-0.1,0.2l0.1-1.2l0.1-0.1l0.2,0l0-0.8c0,0,0.4,0.3,0.4,0.2s0.1-1.2,0.1-1.2s0.3,0.2,0.3,0.2
			s0.1-1.1,0.1-1.1l0.4,0.1l0-1.5l0.2,0.1l0.1,0.2l0.1-0.9l0.2-0.1l0.1,0.2l0.2-0.2l0.3,0.3l0,0.4l0.3-0.2L10.8,42.1L10.8,42.1z"/>
		<path class="st0" d="M10.3,54.9l-2.2-1.6l0.6-0.5l-2.5-2c0,0,1-0.2,0.8-0.3s-0.3-0.5-0.3-0.5L4,47.9l0.5-0.2l-0.2-0.8l-2-1.5
			L3,45.2c0,0,0.2-0.3,0.2-0.3S3,44.5,3,44.5l-2.3-1.7l0.7,0l0.1-0.4L0,41.3l0.5-0.2v-0.9l0.4,0.1l0.4,0.6l0.8-0.3l-0.2-0.5L2.3,40
			L3,40.7l0.4-0.4l-0.2-0.5l2.4,1.7l0,0.4l-0.4,0.5l1.6,1.1c0,0-1.1,0.6-1,0.6S8.4,46,8.4,46s-0.9,0.5-0.8,0.6s2.3,1.8,2.3,1.8
			l-0.7,0.7l3.2,2.1l-0.5,0.5l-0.5,0l1.8,1.4l-0.1,0.6l-0.7-0.1l0.1,0.7l-0.9,0.3l-0.9-0.6V55L10.3,54.9L10.3,54.9z"/>
		<path class="st0" d="M13.6,46.5l-2.4-0.2l0.3-0.7l-2.7-0.4c0,0,0.8-0.7,0.6-0.7s-0.4-0.3-0.4-0.3L6,44l0.4-0.5L5.9,43l-2.2-0.2
			l0.5-0.4c0,0,0.1-0.3,0-0.3s-0.4-0.2-0.4-0.2l-2.5-0.2l0.6-0.4l0-0.4l-1.6-0.1l0.4-0.4l-0.3-0.8l0.3-0.1l0.5,0.3l0.6-0.6l-0.3-0.3
			l0.3-0.2l0.8,0.2l0.2-0.5L2.5,38l2.5,0.2l0.2,0.3l-0.2,0.7l1.7,0.1c0,0-0.7,1-0.6,1S9,40.4,9,40.4s-0.5,0.9-0.4,0.8
			s2.5,0.3,2.5,0.3l-0.4,0.9l3.4,0.1l-0.2,0.6l-0.4,0.3l2,0.2l0.1,0.5l-0.6,0.3l0.4,0.5l-0.6,0.7l-0.9,0l0.3,0.7L13.6,46.5
			L13.6,46.5z"/>
		<path class="st0" d="M75.2,18.5l-1.1-0.7l0.5-0.5l-1.2-1c0,0,0.7-0.3,0.6-0.4s-0.1-0.4-0.1-0.4l-1.4-0.9l0.4-0.3v-0.6l-1-0.7
			l0.4-0.2c0,0,0.2-0.2,0.2-0.3s-0.1-0.3-0.1-0.3l-1.2-0.8l0.5-0.2l0.2-0.3l-0.8-0.5l0.3-0.2l0.2-0.7l0.2,0L72,10l0.5-0.4l0-0.4
			l0.2-0.1l0.3,0.3l0.3-0.4l0-0.3l1.2,0.8l-0.1,0.3l-0.4,0.5l0.8,0.5c0,0-0.8,0.7-0.7,0.6s1.3,0.8,1.3,0.8s-0.6,0.6-0.6,0.6
			s1.1,0.9,1.1,0.9l-0.6,0.6l1.6,0.9l-0.4,0.4l-0.3,0.1l0.9,0.7l-0.2,0.5l-0.4,0.1l0,0.5L76.1,18l-0.4-0.3l-0.2,0.7L75.2,18.5
			L75.2,18.5z"/>
		<path class="st0" d="M109.3,51.8l2.4-2.7l0.3,0.9l1.6-1.8l0.4,0.7l1.9-1.7l0.3,0.7l1.7-1.6l0.9,0.3l1.8-2l0.9,0.3l0.2,0.3l0.6,0.2
			l0.3,0.4l0.6,0l0.2,0.7l-3.8,4.6l0.1,0.7l0.8,0c0,0,1.9-2.6,2-2.6s0.6,0.4,0.6,0.4l0.5-0.3l0.5,0.4l0.5,0.1l-0.1,0.8L125,51
			l-1,1.2l1,0.3l0.4,0.7l-0.9,1.2l-1,0.3l-0.1-0.9c0,0-1.1,1.4-1.2,1.4s-0.9-0.4-0.9-0.4l-1.4,1.5l-0.8-0.4l-1.3,1.5l-0.8-0.3
			l-1.5,1.5l-0.8-0.3l-1.4,1.6l-0.7-0.1l0-0.4l-0.7,0l-0.1-0.7l-0.5,0.2l-0.2-0.5l0.5-0.4l-0.8-0.2c0,0,0-0.5,0.1-0.6
			s1.6-1.9,1.6-1.9s0,0.6,0.1,0.6s0.7,0,0.7,0l2.8-3.1l-0.9-0.4l-1.9,2.2l-0.7-0.3l-0.8,0.9l-0.7-0.1l-0.1-0.5l-0.7,0.2l-0.4-0.7
			l1.2-1.2l-0.8,0l-0.2-0.5l-0.5,0.2L109.3,51.8L109.3,51.8z"/>
		<path class="st0" d="M79.3,4.5L80,5.6l-0.2,0.5l-0.4,0.2L79,6.1l0.6,2l-0.2,0.8l-0.6-0.2l0.6,1.3l-0.3,0.8l-0.7,0l1,1.9l-0.5,0.9
			l-0.4-0.2c0,0,0.5,1.4,0.4,1.4s-0.2,0.5-0.2,0.5L78,15.6l0.4,0.9l-0.2,0.6l-0.7,0.1l0.5,1.6l0.5,0.2l0.6-0.5l0.3,0.9l1-0.4
			l0.4,0.9l1.2-0.4l0.3,0.8l0.9-0.5l0.4,1.1l1.7,0.3l1.6-2.5l-0.3-0.8l-2-0.6l-0.4-0.8l-0.8,0.6L83,16.4l-0.9,0.4l-0.2-0.4
			c0,0-0.4,0.2-0.4,0.2S81.4,16,81.5,16s0.2-0.2,0.2-0.2l0.3,0.3c0,0,0.4-0.5,0.4-0.6l-0.3-0.7l0.4-0.1l0.2,0.4l0.7-0.6
			c0,0,0.3,1,0.4,1s0.7-0.3,0.7-0.3l0.7,0.7l0.7,0.2l-0.2-0.5l0.4-0.2l0.6,0.4l1.1-3.2l-0.9-0.1l-1-0.6l-0.4-0.7l-0.7,0.4l-0.5-1
			l-0.8,0.5l-1-1.6l0.8-0.3l0.6-0.1l0.5,0.7h0.4l0.3,0.5l0.4-0.2l0.3,0.6l0.5-0.1l0.3-0.4l0.4,0.9l0.9-0.4c0,0,0.4,1,0.5,1
			s0.6-0.2,0.6-0.2l0.9-3l-0.5-1.2l-1,0.7l-0.7-0.7l-0.7,0.3L86,5.9l-0.7,0.3l-0.8-1l-1,0.5L82.8,4l-0.9,0.6l-0.5-1.1
			c0,0-1.1,0.1-1.2,0.2S79.3,4.4,79.3,4.5L79.3,4.5z"/>
		<path class="st0" d="M37.7,3.9l1,0.9l0.2,0.8l-0.8,0.1L40,7.1l0.1,0.7l-0.6,0.3c0,0,1.2,0.8,1.2,0.9s0.1,0.9,0.1,0.9l-0.7,0.4
			l1.8,1.5l0.1,0.6l-0.5,0.4l1.2,1.1c0,0,0.1,0.4,0,0.5s-0.6,0.5-0.6,0.5l1,0.6l0,0.8l-0.5,0.6l1.3,1l0.6,0l0.5-0.7
			c0,0,0.9,0.6,1,0.6s0.7-1,0.7-1l-0.9-0.9l0.3-0.6l-0.7-0.8L46,14l-0.4-0.3l0.2-0.3l0.4,0.1l0.1-0.6l-0.6-0.5l0.3-0.3l0.3,0.1
			l0.3-0.9l0.9,1l0.7-0.6l0.6,0.5l0.7-0.1l-0.3-0.7l0.8-0.1l0.3-0.4l-0.8-3L48.5,8l-1.2-0.2l-0.7-0.4l-0.3,0.5l-1.2-0.6l-0.4,0.8
			l-1.5-0.9l0.3-0.5c0,0,0.2-0.7,0.3-0.7s0.6,0.4,0.6,0.4L45,6.4l0.5,0.3L46,6.2l0.6,0.6l0.3-0.9l0.9,0.7l0.6-0.8l0.9,0.7l0.5-0.3
			l-0.8-3.1l-1.1-1l-0.4,1l-1.2-0.3l-0.5,0.7l-1.3-1.1l-0.6,0.6l-1.1-0.4L42.3,3l-0.8,0.2l-1-0.9L40.1,3l-0.8-0.7l-1,0.5L37.7,3.9
			L37.7,3.9z"/>
	</g>
</g>
</svg>
