<?xml version="1.0" encoding="UTF-8"?>
<svg id="Layer_2" data-name="Layer 2" xmlns="http://www.w3.org/2000/svg" viewBox="0 0 86.05 119.5">
  <defs>
    <style>
      .cls-1 {
        fill: #fff;
        stroke-width: 0px;
      }
    </style>
  </defs>
  <g id="Layer_1-2" data-name="Layer 1">
    <g>
      <path class="cls-1" d="m1.57,110.19l-1.57-6.64,2.12.16-1.33-7.89s2.35,1.41,2.22.84.43-1.47.43-1.47l-2.03-8.61,1.48.48,1.01-1.78-1.43-6.08,1.52.89s.94-.04.89-.27.3-1.26.3-1.26l-1.63-6.92,1.47,1.2.95-.52-1.08-4.56,1.37.51,1.61-1.75.49.83-.29,1.79,2.05.88.59-1.27.83.52.26,2.37h1.49s.55-1.19.55-1.19l1.7,7.2-.68.87-1.8.19,1.18,4.77s-3.22-.79-2.98-.54,1.89,7.75,1.89,7.75c0,0-2.67-.5-2.49-.24s1.38,7.1,1.38,7.1l-2.61.02,2.61,9.31h-1.73s-1.14-.81-1.14-.81l1.12,5.74-1.2.94-1.26-1.31-.95,1.53-2.26-1.01-.67-2.58-1.58,1.62-.79-.82Z"/>
      <path class="cls-1" d="m6.26,74.56l-1.57-6.64,2.12.16-1.33-7.89s2.35,1.41,2.22.84.43-1.47.43-1.47l-2.03-8.61,1.48.48,1.01-1.78-1.43-6.08,1.52.89s.94-.04.89-.27.3-1.26.3-1.26l-1.63-6.92,1.47,1.2.95-.52-1.08-4.56,1.37.51,1.61-1.75.49.83-.29,1.79,2.05.88.59-1.27.83.52.26,2.37h1.49s.55-1.19.55-1.19l1.7,7.2-.68.87-1.8.19,1.18,4.77s-3.22-.79-2.98-.54,1.89,7.75,1.89,7.75c0,0-2.67-.5-2.49-.24s1.38,7.1,1.38,7.1l-2.61.02,2.61,9.31h-1.73s-1.14-.81-1.14-.81l1.12,5.74-1.2.94-1.26-1.31-.95,1.53-2.26-1.01-.67-2.58-1.58,1.62-.79-.82Z"/>
      <path class="cls-1" d="m84.34,114.03l1.71-6.61-2.12.11,1.5-7.86s-2.38,1.35-2.24.8-.39-1.48-.39-1.48l2.22-8.57-1.49.45-.97-1.8,1.56-6.05-1.54.86s-.94-.06-.88-.29-.27-1.26-.27-1.26l1.78-6.89-1.5,1.17-.94-.54,1.17-4.53-1.38.48-1.57-1.78-.51.82.25,1.8-2.07.84-.56-1.28-.85.5-.31,2.37-1.49-.03-.52-1.21-1.85,7.17.67.89,1.79.23-1.29,4.74s3.23-.72,2.99-.48-2.06,7.71-2.06,7.71c0,0,2.68-.44,2.5-.19s-1.53,7.07-1.53,7.07l2.61.08-2.81,9.25,1.73.03,1.16-.78-1.24,5.71,1.18.96,1.29-1.28.91,1.55,2.28-.96.72-2.56,1.54,1.65.81-.81Z"/>
      <path class="cls-1" d="m80.41,78.31l1.71-6.61-2.12.11,1.5-7.86s-2.38,1.35-2.24.8-.39-1.48-.39-1.48l2.22-8.57-1.49.45-.97-1.8,1.56-6.05-1.54.86s-.94-.06-.88-.29-.27-1.26-.27-1.26l1.78-6.89-1.5,1.17-.94-.54,1.17-4.53-1.38.48-1.57-1.78-.51.82.25,1.8-2.07.84-.56-1.28-.85.5-.31,2.37-1.49-.03-.52-1.21-1.85,7.17.67.89,1.79.23-1.29,4.74s3.23-.72,2.99-.48-2.06,7.71-2.06,7.71c0,0,2.68-.44,2.5-.19s-1.53,7.07-1.53,7.07l2.61.08-2.81,9.25,1.73.03,1.16-.78-1.24,5.71,1.18.96,1.29-1.28.91,1.55,2.28-.96.72-2.56,1.54,1.65.81-.81Z"/>
      <path class="cls-1" d="m82.41,109.7l-6.31-2.6-.18,2.11-7.58-2.56s1.01,2.55.48,2.32-1.52.19-1.52.19l-8.18-3.37.24,1.54-1.92.71-5.77-2.38.64,1.64s-.19.92-.41.83-1.29.09-1.29.09l-6.58-2.71.95,1.64-.66.85-4.33-1.79.29,1.43-1.98,1.31.75.62h1.82s.55,2.16.55,2.16l-1.35.38.38.91,2.3.64-.23,1.47-1.27.35,6.84,2.82.97-.54.47-1.75,4.52,1.93s-.27-3.3-.06-3.03,7.36,3.1,7.36,3.1c0,0-.07-2.72.16-2.5s6.79,2.49,6.79,2.49l.44-2.57,8.77,4.06.27-1.7-.61-1.25,5.49,2.01,1.12-1.04-1.09-1.45,1.66-.69-.64-2.39-2.44-1.07,1.85-1.3-.69-.91Z"/>
      <path class="cls-1" d="m46.48,108.68l-6.31-2.6-.18,2.11-7.58-2.56s1.01,2.55.48,2.32-1.52.19-1.52.19l-8.18-3.37.24,1.54-1.92.71-5.77-2.38.64,1.64s-.19.92-.41.83-1.29.09-1.29.09l-6.58-2.71.95,1.64-.66.85-4.33-1.79.29,1.43-1.98,1.31.75.62h1.82s.55,2.16.55,2.16l-1.35.38.38.91,2.3.64-.23,1.47-1.27.35,6.84,2.82.97-.54.47-1.75,4.52,1.93s-.27-3.3-.06-3.03,7.36,3.1,7.36,3.1c0,0-.07-2.72.16-2.5s6.79,2.49,6.79,2.49l.44-2.57,8.77,4.06.27-1.7-.61-1.25,5.49,2.01,1.12-1.04-1.09-1.45,1.66-.69-.64-2.39-2.44-1.07,1.85-1.3-.69-.91Z"/>
      <path class="cls-1" d="m79.15,34.36l-5.8-2.39-.17,1.94-6.96-2.35s.93,2.34.44,2.14-1.39.17-1.39.17l-7.52-3.1.22,1.41-1.76.65-5.31-2.19.59,1.51s-.18.85-.37.77-1.19.09-1.19.09l-6.04-2.49.87,1.51-.61.78-3.98-1.64.26,1.32-1.82,1.2.68.57h1.67s.5,1.99.5,1.99l-1.24.35.35.83,2.12.59-.21,1.35-1.17.32,6.29,2.59.89-.49.43-1.6,4.16,1.77s-.24-3.03-.06-2.78,6.76,2.85,6.76,2.85c0,0-.06-2.5.14-2.3s6.24,2.29,6.24,2.29l.4-2.36,8.06,3.73.24-1.57-.56-1.15,5.04,1.85,1.03-.96-1-1.33,1.53-.64-.59-2.2-2.24-.98,1.7-1.2-.63-.84Z"/>
      <g>
        <path class="cls-1" d="m45.11,3.16c-1.68-1.53-2.56-2.17-4.36-3.16-.01,1.19-.02,1.78-.03,2.97-2.09-.85-3.18-1.09-5.38-1.09,0,0,.99,3.06.61,2.99-.38-.07-.97.96-.97.96-2.33-.25-3.53-.12-5.97.73.2.74.3,1.11.5,1.85-.43.98-.63,1.48-1.04,2.5-1.66.71-2.5,1.2-4.19,2.52.35.54.53.81.87,1.37,0,0,.16,1.35,0,1.46-.15.11-.72,1.49-.72,1.49-1.84,1.52-2.77,2.48-4.61,4.84.45.22.68.34,1.12.6-.02.74-.02,1.1-.04,1.84-1.17,1.46-1.76,2.28-2.92,4.12.29.43.44.65.73,1.09-.17,1.71-.25,2.56-.38,4.28.24-.2.36-.29.61-.47.33-1.06.5-1.58.85-2.6.46.62.68.93,1.13,1.57-.19.89-.28,1.33-.45,2.23.22.17.33.26.54.44.51-.97.77-1.43,1.29-2.31.19.76.28,1.14.47,1.9-.17.78-.25,1.18-.41,1.98,1.62-2.28,2.45-3.19,4.08-4.65.1-.65.16-.98.27-1.62-.15-1.02-.22-1.54-.35-2.57,1.13-.9,1.7-1.26,2.82-1.82,0,0-1.07-3.94-.89-3.78.18.16,4.68-1.55,4.68-1.55,0,0-.6-3.59-.43-3.44.17.15,4.25-.26,4.25-.26-.04-1.49-.06-2.24-.09-3.73,2.28.76,3.38,1.42,5.43,3.14.04-.96.05-1.44.09-2.4-.16-.66-.24-.99-.41-1.65,1.34.78,2,1.26,3.26,2.38.27-.57.4-.84.68-1.39-.24-.81-.36-1.22-.62-2.02.41-.36.62-.54,1.04-.86-.12-1.32-.18-1.98-.32-3.31-.61-.65-.92-.96-1.55-1.54.49-.72.73-1.07,1.24-1.74-.17-.51-.26-.77-.44-1.28Z"/>
        <path class="cls-1" d="m68.13,33.07c-.84-4.33-1.32-6.44-2.38-10.49-.31.71-.46,1.07-.77,1.79-1.31-4.5-2.04-6.64-3.62-10.61,0,0-.06,3.72-.31,2.99s-.94-1.14-.94-1.14c-1.61-4.32-2.51-6.34-4.44-10.02-.04.82-.07,1.23-.11,2.05-.55-.11-.82-.15-1.36-.2-1.35-2.41-2.06-3.53-3.55-5.57.11.95.16,1.42.26,2.37,0,0-.23,1.14-.36.96-.13-.19-.86-.27-.86-.27-1.65-2.18-2.51-3.15-4.32-4.79.25.92.37,1.38.6,2.31-.19.44-.29.66-.47,1.11-1.14-1.08-1.73-1.56-2.94-2.4.09.78.13,1.17.22,1.95-.53.79-.78,1.2-1.28,2.05.21.3.31.45.51.75.47-.09.71-.13,1.19-.18.15,1.18.23,1.77.37,2.95-.34.24-.51.37-.84.63.1.49.15.73.25,1.22.57.27.86.42,1.42.75-.06.81-.09,1.21-.15,2.03-.3.21-.45.32-.75.55,1.63,1.36,2.41,2.18,3.89,4.05.23-.24.35-.36.59-.59.16-.91.24-1.36.4-2.26,1,1.36,1.48,2.1,2.4,3.65,0,0,.24-4.38.33-3.96.09.42,3.69,7.07,3.69,7.07,0,0,.48-3.34.57-2.95.08.39,3.12,7.33,3.12,7.33.35-1.01.52-1.51.88-2.5,1.46,4.58,2.1,7.02,3.17,12.02.27-.53.4-.79.67-1.31.05-.72.07-1.08.12-1.8.79,3.05,1.15,4.63,1.79,7.86.34.19.51.29.85.52.03-.99.04-1.49.05-2.5.39.6.59.91.97,1.57.24-1.07.36-1.6.59-2.69-.28-1.65-.43-2.46-.75-4.08.53.52.8.8,1.34,1.42,0-.67,0-1,0-1.68Z"/>
      </g>
      <path class="cls-1" d="m46.13,33.42l-5.8-2.39-.17,1.94-6.96-2.35s.93,2.34.44,2.14-1.39.17-1.39.17l-7.52-3.1.22,1.41-1.76.65-5.31-2.19.59,1.51s-.18.85-.37.77-1.19.09-1.19.09l-6.04-2.49.87,1.51-.61.78-3.98-1.64.26,1.32-1.82,1.2.68.57h1.67s.5,1.99.5,1.99l-1.24.35.35.83,2.12.59-.21,1.35-1.17.32,6.29,2.59.89-.49.43-1.6,4.16,1.77s-.24-3.03-.06-2.78,6.76,2.85,6.76,2.85c0,0-.06-2.5.14-2.3s6.24,2.29,6.24,2.29l.4-2.36,8.06,3.73.24-1.57-.56-1.15,5.04,1.85,1.03-.96-1-1.33,1.53-.64-.59-2.2-2.24-.98,1.7-1.2-.63-.84Z"/>
    </g>
    <polygon class="cls-1" points="7.35 106.56 15.52 36.94 71.34 37.19 80.91 110.3 9.97 110.3 7.35 106.56"/>
  </g>
</svg>